<svg width="87" height="35" viewBox="0 0 87 35" fill="none" xmlns="http://www.w3.org/2000/svg">
<path d="M5.73063 0.543999C5.98663 0.447998 6.22663 0.399998 6.45063 0.399998H11.0586C11.2186 0.399998 11.3466 0.463998 11.4426 0.591998C11.5706 0.687999 11.6346 0.815999 11.6346 0.975999V33.424C11.6346 33.584 11.5706 33.728 11.4426 33.856C11.3466 33.952 11.2186 34 11.0586 34H6.64263C6.48263 34 6.33863 33.952 6.21063 33.856C6.11463 33.728 6.06663 33.584 6.06663 33.424V6.16C6.06663 6.096 6.03463 6.048 5.97063 6.016C5.90663 5.952 5.84263 5.936 5.77863 5.968L0.978629 7.456C0.914629 7.488 0.834629 7.504 0.738629 7.504C0.610629 7.504 0.498629 7.456 0.402629 7.36C0.338629 7.264 0.306629 7.136 0.306629 6.976L0.162629 3.808C0.162629 3.488 0.290629 3.264 0.546629 3.136L5.73063 0.543999ZM23.3725 28.912C23.3085 28.976 23.2765 29.04 23.2765 29.104C23.3085 29.168 23.3725 29.2 23.4685 29.2H37.1485C37.3085 29.2 37.4365 29.264 37.5325 29.392C37.6605 29.488 37.7245 29.616 37.7245 29.776V33.424C37.7245 33.584 37.6605 33.728 37.5325 33.856C37.4365 33.952 37.3085 34 37.1485 34H16.5085C16.3485 34 16.2045 33.952 16.0765 33.856C15.9805 33.728 15.9325 33.584 15.9325 33.424V29.968C15.9325 29.68 16.0285 29.44 16.2205 29.248C18.6525 26.656 21.4685 23.472 24.6685 19.696L26.9245 17.056C29.8685 13.632 31.3405 11.04 31.3405 9.28C31.3405 7.968 30.8765 6.896 29.9485 6.064C29.0205 5.232 27.8205 4.816 26.3485 4.816C24.8765 4.816 23.6765 5.232 22.7485 6.064C21.8525 6.896 21.4045 8 21.4045 9.376V10.624C21.4045 10.784 21.3405 10.928 21.2125 11.056C21.1165 11.152 20.9885 11.2 20.8285 11.2H16.3645C16.2045 11.2 16.0605 11.152 15.9325 11.056C15.8365 10.928 15.7885 10.784 15.7885 10.624V8.56C15.8525 6.832 16.3485 5.328 17.2765 4.048C18.2045 2.768 19.4525 1.776 21.0205 1.072C22.6205 0.367999 24.3965 0.0159998 26.3485 0.0159998C28.4925 0.0159998 30.3645 0.415999 31.9645 1.216C33.5645 2.016 34.7965 3.12 35.6605 4.528C36.5245 5.904 36.9565 7.456 36.9565 9.184C36.9565 11.808 35.5645 14.832 32.7805 18.256C31.2445 20.176 28.7165 23.056 25.1965 26.896L23.3725 28.912ZM52.114 34.528C48.754 34.528 46.082 33.584 44.098 31.696C42.146 29.776 41.17 27.2 41.17 23.968V10.432C41.17 7.232 42.146 4.704 44.098 2.848C46.082 0.959999 48.754 0.0159998 52.114 0.0159998C55.474 0.0159998 58.146 0.959999 60.13 2.848C62.146 4.704 63.154 7.232 63.154 10.432V23.968C63.154 27.2 62.146 29.776 60.13 31.696C58.146 33.584 55.474 34.528 52.114 34.528ZM52.114 29.68C53.778 29.68 55.106 29.2 56.098 28.24C57.09 27.248 57.586 25.92 57.586 24.256V10.24C57.586 8.576 57.09 7.264 56.098 6.304C55.106 5.312 53.778 4.816 52.114 4.816C50.482 4.816 49.17 5.312 48.178 6.304C47.218 7.264 46.738 8.576 46.738 10.24V24.256C46.738 25.92 47.218 27.248 48.178 28.24C49.17 29.2 50.482 29.68 52.114 29.68ZM85.7792 16.96C85.9392 16.96 86.0672 17.024 86.1632 17.152C86.2912 17.248 86.3552 17.376 86.3552 17.536V21.184C86.3552 21.344 86.2912 21.488 86.1632 21.616C86.0672 21.712 85.9392 21.76 85.7792 21.76H78.7712C78.6112 21.76 78.5312 21.84 78.5312 22V28.912C78.5312 29.072 78.4672 29.216 78.3392 29.344C78.2432 29.44 78.1152 29.488 77.9552 29.488H74.3552C74.1952 29.488 74.0512 29.44 73.9232 29.344C73.8272 29.216 73.7792 29.072 73.7792 28.912V22C73.7792 21.84 73.6992 21.76 73.5392 21.76H66.4832C66.3232 21.76 66.1792 21.712 66.0512 21.616C65.9552 21.488 65.9072 21.344 65.9072 21.184V17.536C65.9072 17.376 65.9552 17.248 66.0512 17.152C66.1792 17.024 66.3232 16.96 66.4832 16.96H73.5392C73.6992 16.96 73.7792 16.88 73.7792 16.72V9.616C73.7792 9.456 73.8272 9.328 73.9232 9.232C74.0512 9.104 74.1952 9.04 74.3552 9.04H77.9552C78.1152 9.04 78.2432 9.104 78.3392 9.232C78.4672 9.328 78.5312 9.456 78.5312 9.616V16.72C78.5312 16.88 78.6112 16.96 78.7712 16.96H85.7792Z" fill="#222222"/>
</svg>
