<svg width="65" height="41" viewBox="0 0 65 41" fill="none" xmlns="http://www.w3.org/2000/svg">
<path d="M5.44219 40C4.96219 40 4.80219 39.776 4.96219 39.328L15.5702 11.488C15.6342 11.296 15.5702 11.2 15.3782 11.2H5.05819C4.89819 11.2 4.81819 11.28 4.81819 11.44V13.6C4.81819 13.76 4.75419 13.904 4.62619 14.032C4.53019 14.128 4.40219 14.176 4.24219 14.176H0.786189C0.626189 14.176 0.482189 14.128 0.354189 14.032C0.258189 13.904 0.210189 13.76 0.210189 13.6V6.976C0.210189 6.816 0.258189 6.688 0.354189 6.592C0.482189 6.464 0.626189 6.4 0.786189 6.4H20.9942C21.1542 6.4 21.2822 6.464 21.3782 6.592C21.5062 6.688 21.5702 6.816 21.5702 6.976V10.816C21.5702 11.008 21.5222 11.248 21.4262 11.536L10.8662 39.52C10.7702 39.84 10.5462 40 10.1942 40H5.44219ZM30.6557 40.816L35.7917 25.552L23.4077 17.248H38.5757L43.9997 0.879997L49.5197 17.248H64.5917L52.2077 25.552L57.4397 40.816L43.9997 31.072L30.6557 40.816Z" fill="#222222"/>
</svg>
