<svg width="375" height="472" viewBox="0 0 375 472" fill="none" xmlns="http://www.w3.org/2000/svg">
<g clip-path="url(#clip0_64_1550)">
<rect width="375" height="472" fill="url(#paint0_linear_64_1550)"/>
<rect width="375" height="472" fill="url(#paint1_linear_64_1550)"/>
<path d="M0 0H375V471.884H0V0Z" fill="url(#paint2_linear_64_1550)"/>
<path d="M0 0H375V471.884H0V0Z" fill="url(#paint3_linear_64_1550)"/>
<path opacity="0.3" d="M282.699 816.276C293.292 494.471 256.5 135.375 200.522 14.2132C144.544 -106.949 90.5777 55.7047 79.9844 377.51C69.3912 699.315 106.183 1058.41 162.161 1179.57C218.139 1300.73 272.106 1138.08 282.699 816.276Z" fill="url(#paint4_linear_64_1550)"/>
<g clip-path="url(#clip1_64_1550)">
<path d="M72.7679 526.464C142.543 526.464 199.107 486.49 199.107 437.179C199.107 387.867 142.543 347.893 72.7679 347.893C2.99261 347.893 -53.5714 387.867 -53.5714 437.179C-53.5714 486.49 2.99261 526.464 72.7679 526.464Z" fill="url(#paint5_linear_64_1550)"/>
<path d="M72.7679 473.786C142.543 473.786 199.107 457.396 199.107 437.179C199.107 416.961 142.543 400.571 72.7679 400.571C2.99261 400.571 -53.5714 416.961 -53.5714 437.179C-53.5714 457.396 2.99261 473.786 72.7679 473.786Z" fill="url(#paint6_linear_64_1550)"/>
<path d="M-53.5714 436.835C-53.5714 506.522 2.9681 563.071 72.7679 563.071C142.511 563.071 199.107 506.578 199.107 436.835C199.107 427.758 198.148 418.906 196.286 410.393H-50.8065C-52.6122 418.963 -53.5714 427.758 -53.5714 436.835Z" fill="url(#paint7_linear_64_1550)"/>
<path d="M16.2668 499.201C58.0281 540.963 125.783 540.963 167.544 499.201C209.305 457.44 209.305 389.686 167.544 347.924C162.097 342.477 156.22 337.794 150.008 333.733L2.12341 481.665C6.13708 487.877 10.8197 493.754 16.2668 499.201Z" fill="url(#paint8_linear_64_1550)"/>
<path d="M99.4717 433.836L42.2291 396.614C39.7444 394.989 38.9321 391.692 40.4134 389.112C44.7615 381.61 53.8401 378.218 62.0107 381.085L118.441 400.866L99.4717 433.836Z" fill="url(#paint9_linear_64_1550)"/>
<path d="M95.0757 430.921L42.2768 396.566C40.1744 395.18 39.2666 392.6 39.9833 390.307C42.7547 389.733 46.4816 390.546 50.3998 392.791L98.7071 420.744L95.0757 430.921Z" fill="url(#paint10_linear_64_1550)"/>
<path d="M97.7515 432.068L134.973 489.311C136.598 491.795 139.895 492.608 142.475 491.126C149.977 486.778 153.369 477.7 150.503 469.529L130.721 413.099L97.7515 432.068Z" fill="url(#paint11_linear_64_1550)"/>
<path d="M141.281 491.652C138.939 492.321 136.407 491.461 135.021 489.358L100.666 436.559L110.892 432.976L138.796 481.235C141.042 485.154 141.854 488.833 141.281 491.652Z" fill="url(#paint12_linear_64_1550)"/>
<path d="M146.25 457.345L130.721 413.051L97.7515 432.068L126.851 476.744L146.25 457.345Z" fill="url(#paint13_linear_64_1550)"/>
<path d="M55.4647 474.211L28.6113 456.723C26.1266 455.099 25.3621 451.85 26.8434 449.269L28.8024 445.877C30.1403 443.536 32.9594 442.532 35.4441 443.392L66.8845 454.382L55.4647 474.211Z" fill="url(#paint14_linear_64_1550)"/>
<path d="M57.3281 476.123L74.8163 502.976C76.4408 505.461 79.69 506.225 82.2702 504.744L85.6627 502.785C88.004 501.447 89.0075 498.628 88.1474 496.143L77.1576 464.703L57.3281 476.123Z" fill="url(#paint15_linear_64_1550)"/>
<path d="M57.3281 476.123L74.8163 502.976C76.4408 505.461 79.69 506.225 82.2702 504.744L85.6627 502.785C88.004 501.447 89.0075 498.628 88.1474 496.143L77.1576 464.703L57.3281 476.123Z" fill="url(#paint16_linear_64_1550)"/>
<path d="M149.213 382.709C149.069 382.566 148.974 382.47 148.83 382.327C140.086 373.631 123.41 376.45 112.134 388.443C86.4751 415.679 60.5295 446.88 45.096 472.109C41.9902 477.222 42.038 482.86 45.2871 486.109L45.4305 486.253C48.6796 489.502 54.3179 489.549 59.4306 486.444C84.7071 471.01 115.861 445.112 143.096 419.406C155.09 408.129 157.909 391.453 149.213 382.709Z" fill="url(#paint17_linear_64_1550)"/>
<path d="M133.158 397.904C133.349 398.095 133.492 398.238 133.683 398.43C136.837 401.583 139.083 405.31 140.468 409.228C141.185 411.283 144.004 411.474 145.008 409.611C149.547 401.201 149.786 392.314 144.769 387.201C144.673 387.105 144.578 387.01 144.434 386.866C139.369 381.802 130.482 382.088 122.025 386.628C120.113 387.631 120.352 390.45 122.407 391.167C126.277 392.505 129.956 394.75 133.158 397.904Z" fill="url(#paint18_linear_64_1550)"/>
<path d="M133.158 397.904C133.349 398.095 133.492 398.238 133.683 398.43C136.837 401.583 139.083 405.31 140.468 409.228C141.185 411.283 144.004 411.474 145.008 409.611C149.547 401.201 149.786 392.314 144.769 387.201C144.673 387.105 144.578 387.01 144.434 386.866C139.369 381.802 130.482 382.088 122.025 386.628C120.113 387.631 120.352 390.45 122.407 391.167C126.277 392.505 129.956 394.75 133.158 397.904Z" fill="url(#paint19_linear_64_1550)"/>
<path d="M133.158 397.904C133.349 398.095 133.492 398.238 133.683 398.43C136.837 401.583 139.083 405.31 140.468 409.228C141.185 411.283 144.004 411.474 145.008 409.611C149.547 401.201 149.786 392.314 144.769 387.201C144.673 387.105 144.578 387.01 144.434 386.866C139.369 381.802 130.482 382.088 122.025 386.628C120.113 387.631 120.352 390.45 122.407 391.167C126.277 392.505 129.956 394.75 133.158 397.904Z" fill="url(#paint20_linear_64_1550)"/>
<path d="M64.4954 444.109C57.0892 453.856 50.4476 463.365 45.096 472.109C41.9902 477.222 42.038 482.86 45.2871 486.109L45.4305 486.252C48.6796 489.502 54.3179 489.549 59.4306 486.444C68.1746 481.092 77.6354 474.498 87.4307 467.044L64.4954 444.109Z" fill="url(#paint21_linear_64_1550)"/>
</g>
</g>
<defs>
<linearGradient id="paint0_linear_64_1550" x1="1.90284e-07" y1="-125.375" x2="379.875" y2="-120.176" gradientUnits="userSpaceOnUse">
<stop stop-color="#FFD4CA"/>
<stop offset="1" stop-color="#EB4747"/>
</linearGradient>
<linearGradient id="paint1_linear_64_1550" x1="-13.7695" y1="-5.03515e-06" x2="385.857" y2="9.37905" gradientUnits="userSpaceOnUse">
<stop stop-color="#F67F29"/>
<stop offset="1" stop-color="#DA0530"/>
</linearGradient>
<linearGradient id="paint2_linear_64_1550" x1="1.90284e-07" y1="-125.344" x2="379.875" y2="-120.144" gradientUnits="userSpaceOnUse">
<stop stop-color="#FFD4CA"/>
<stop offset="1" stop-color="#EB4747"/>
</linearGradient>
<linearGradient id="paint3_linear_64_1550" x1="-13.7695" y1="-5.03391e-06" x2="385.857" y2="9.38136" gradientUnits="userSpaceOnUse">
<stop stop-color="#F67F29"/>
<stop offset="1" stop-color="#DA0530"/>
</linearGradient>
<linearGradient id="paint4_linear_64_1550" x1="221.019" y1="162.765" x2="-171.242" y2="228.103" gradientUnits="userSpaceOnUse">
<stop stop-color="#F5FBFF" stop-opacity="0"/>
<stop offset="0.1205" stop-color="#F5FBFF" stop-opacity="0.016"/>
<stop offset="0.2454" stop-color="#F5FBFF" stop-opacity="0.065"/>
<stop offset="0.3724" stop-color="#F5FBFF" stop-opacity="0.147"/>
<stop offset="0.5008" stop-color="#F5FBFF" stop-opacity="0.261"/>
<stop offset="0.6304" stop-color="#F5FBFF" stop-opacity="0.408"/>
<stop offset="0.761" stop-color="#F5FBFF" stop-opacity="0.588"/>
<stop offset="0.8898" stop-color="#F5FBFF" stop-opacity="0.797"/>
<stop offset="1" stop-color="#F5FBFF"/>
</linearGradient>
<linearGradient id="paint5_linear_64_1550" x1="187.546" y1="539.261" x2="-197.898" y2="194.03" gradientUnits="userSpaceOnUse">
<stop stop-color="#F5FBFF" stop-opacity="0"/>
<stop offset="0.1205" stop-color="#F5FBFF" stop-opacity="0.016"/>
<stop offset="0.2454" stop-color="#F5FBFF" stop-opacity="0.065"/>
<stop offset="0.3724" stop-color="#F5FBFF" stop-opacity="0.147"/>
<stop offset="0.5008" stop-color="#F5FBFF" stop-opacity="0.261"/>
<stop offset="0.6304" stop-color="#F5FBFF" stop-opacity="0.408"/>
<stop offset="0.761" stop-color="#F5FBFF" stop-opacity="0.588"/>
<stop offset="0.8898" stop-color="#F5FBFF" stop-opacity="0.797"/>
<stop offset="1" stop-color="#F5FBFF"/>
</linearGradient>
<linearGradient id="paint6_linear_64_1550" x1="90.544" y1="482.519" x2="25.5909" y2="319.738" gradientUnits="userSpaceOnUse">
<stop stop-color="#F5FBFF" stop-opacity="0"/>
<stop offset="0.1205" stop-color="#F5FBFF" stop-opacity="0.016"/>
<stop offset="0.2454" stop-color="#F5FBFF" stop-opacity="0.065"/>
<stop offset="0.3724" stop-color="#F5FBFF" stop-opacity="0.147"/>
<stop offset="0.5008" stop-color="#F5FBFF" stop-opacity="0.261"/>
<stop offset="0.6304" stop-color="#F5FBFF" stop-opacity="0.408"/>
<stop offset="0.761" stop-color="#F5FBFF" stop-opacity="0.588"/>
<stop offset="0.8898" stop-color="#F5FBFF" stop-opacity="0.797"/>
<stop offset="1" stop-color="#F5FBFF"/>
</linearGradient>
<linearGradient id="paint7_linear_64_1550" x1="72.725" y1="456.487" x2="72.725" y2="571.643" gradientUnits="userSpaceOnUse">
<stop stop-color="#0182FC" stop-opacity="0"/>
<stop offset="0.192" stop-color="#017FF5" stop-opacity="0.04"/>
<stop offset="0.391" stop-color="#0179E3" stop-opacity="0.161"/>
<stop offset="0.5932" stop-color="#016EC6" stop-opacity="0.362"/>
<stop offset="0.7966" stop-color="#015F9C" stop-opacity="0.643"/>
<stop offset="1" stop-color="#024C67"/>
</linearGradient>
<linearGradient id="paint8_linear_64_1550" x1="106.614" y1="438.28" x2="217.293" y2="548.958" gradientUnits="userSpaceOnUse">
<stop stop-color="#F5FBFF" stop-opacity="0"/>
<stop offset="0.1205" stop-color="#F5FBFF" stop-opacity="0.016"/>
<stop offset="0.2454" stop-color="#F5FBFF" stop-opacity="0.065"/>
<stop offset="0.3724" stop-color="#F5FBFF" stop-opacity="0.147"/>
<stop offset="0.5008" stop-color="#F5FBFF" stop-opacity="0.261"/>
<stop offset="0.6304" stop-color="#F5FBFF" stop-opacity="0.408"/>
<stop offset="0.761" stop-color="#F5FBFF" stop-opacity="0.588"/>
<stop offset="0.8898" stop-color="#F5FBFF" stop-opacity="0.797"/>
<stop offset="1" stop-color="#F5FBFF"/>
</linearGradient>
<linearGradient id="paint9_linear_64_1550" x1="84.0536" y1="388.89" x2="67.4174" y2="414.937" gradientUnits="userSpaceOnUse">
<stop stop-color="#EAF6FF"/>
<stop offset="0.2651" stop-color="#E5F3FE"/>
<stop offset="0.5398" stop-color="#D9EDFE"/>
<stop offset="0.8179" stop-color="#C4E3FE"/>
<stop offset="1" stop-color="#B3DAFE"/>
</linearGradient>
<linearGradient id="paint10_linear_64_1550" x1="65.3425" y1="413.492" x2="71.3915" y2="404.081" gradientUnits="userSpaceOnUse">
<stop stop-color="#EAF6FF"/>
<stop offset="0.2651" stop-color="#E5F3FE"/>
<stop offset="0.5398" stop-color="#D9EDFE"/>
<stop offset="0.8179" stop-color="#C4E3FE"/>
<stop offset="1" stop-color="#B3DAFE"/>
</linearGradient>
<linearGradient id="paint11_linear_64_1550" x1="141.729" y1="447.504" x2="116.523" y2="463.636" gradientUnits="userSpaceOnUse">
<stop stop-color="#EAF6FF"/>
<stop offset="0.2651" stop-color="#E5F3FE"/>
<stop offset="0.5398" stop-color="#D9EDFE"/>
<stop offset="0.8179" stop-color="#C4E3FE"/>
<stop offset="1" stop-color="#B3DAFE"/>
</linearGradient>
<linearGradient id="paint12_linear_64_1550" x1="117.449" y1="466.006" x2="125.683" y2="460.796" gradientUnits="userSpaceOnUse">
<stop stop-color="#EAF6FF"/>
<stop offset="0.2651" stop-color="#E5F3FE"/>
<stop offset="0.5398" stop-color="#D9EDFE"/>
<stop offset="0.8179" stop-color="#C4E3FE"/>
<stop offset="1" stop-color="#B3DAFE"/>
</linearGradient>
<linearGradient id="paint13_linear_64_1550" x1="132.558" y1="448.811" x2="120.112" y2="436.365" gradientUnits="userSpaceOnUse">
<stop stop-color="#8AC9FE" stop-opacity="0"/>
<stop offset="0.1291" stop-color="#89C8FD" stop-opacity="0.019"/>
<stop offset="0.2629" stop-color="#88C6FB" stop-opacity="0.075"/>
<stop offset="0.3989" stop-color="#87C4F8" stop-opacity="0.168"/>
<stop offset="0.5365" stop-color="#85C0F4" stop-opacity="0.298"/>
<stop offset="0.6753" stop-color="#83BBEF" stop-opacity="0.466"/>
<stop offset="0.8151" stop-color="#7FB5E9" stop-opacity="0.672"/>
<stop offset="0.9532" stop-color="#7CAEE1" stop-opacity="0.911"/>
<stop offset="1" stop-color="#7BACDF"/>
</linearGradient>
<linearGradient id="paint14_linear_64_1550" x1="48.3899" y1="449.484" x2="38.4756" y2="465.448" gradientUnits="userSpaceOnUse">
<stop stop-color="#EAF6FF"/>
<stop offset="0.2651" stop-color="#E5F3FE"/>
<stop offset="0.5398" stop-color="#D9EDFE"/>
<stop offset="0.8179" stop-color="#C4E3FE"/>
<stop offset="1" stop-color="#B3DAFE"/>
</linearGradient>
<linearGradient id="paint15_linear_64_1550" x1="81.3281" y1="483.56" x2="67.2127" y2="491.29" gradientUnits="userSpaceOnUse">
<stop stop-color="#EAF6FF"/>
<stop offset="0.2651" stop-color="#E5F3FE"/>
<stop offset="0.5398" stop-color="#D9EDFE"/>
<stop offset="0.8179" stop-color="#C4E3FE"/>
<stop offset="1" stop-color="#B3DAFE"/>
</linearGradient>
<linearGradient id="paint16_linear_64_1550" x1="80.3795" y1="489.847" x2="69.793" y2="475.9" gradientUnits="userSpaceOnUse">
<stop stop-color="#8AC9FE" stop-opacity="0"/>
<stop offset="0.1291" stop-color="#89C8FD" stop-opacity="0.019"/>
<stop offset="0.2629" stop-color="#88C6FB" stop-opacity="0.075"/>
<stop offset="0.3989" stop-color="#87C4F8" stop-opacity="0.168"/>
<stop offset="0.5365" stop-color="#85C0F4" stop-opacity="0.298"/>
<stop offset="0.6753" stop-color="#83BBEF" stop-opacity="0.466"/>
<stop offset="0.8151" stop-color="#7FB5E9" stop-opacity="0.672"/>
<stop offset="0.9532" stop-color="#7CAEE1" stop-opacity="0.911"/>
<stop offset="1" stop-color="#7BACDF"/>
</linearGradient>
<linearGradient id="paint17_linear_64_1550" x1="87.6054" y1="424.867" x2="105.497" y2="442.758" gradientUnits="userSpaceOnUse">
<stop stop-color="#EAF6FF"/>
<stop offset="0.2651" stop-color="#E5F3FE"/>
<stop offset="0.5398" stop-color="#D9EDFE"/>
<stop offset="0.8179" stop-color="#C4E3FE"/>
<stop offset="1" stop-color="#B3DAFE"/>
</linearGradient>
<linearGradient id="paint18_linear_64_1550" x1="128.842" y1="384.651" x2="143.763" y2="399.573" gradientUnits="userSpaceOnUse">
<stop stop-color="#26A6FE"/>
<stop offset="0.2729" stop-color="#23A1FD"/>
<stop offset="0.5557" stop-color="#1A95FD"/>
<stop offset="0.8419" stop-color="#0B80FB"/>
<stop offset="1" stop-color="#0172FB"/>
</linearGradient>
<linearGradient id="paint19_linear_64_1550" x1="135.845" y1="395.133" x2="130.389" y2="380.445" gradientUnits="userSpaceOnUse">
<stop stop-color="#0182FC" stop-opacity="0"/>
<stop offset="0.192" stop-color="#017FF5" stop-opacity="0.04"/>
<stop offset="0.391" stop-color="#0179E3" stop-opacity="0.161"/>
<stop offset="0.5932" stop-color="#016EC6" stop-opacity="0.362"/>
<stop offset="0.7966" stop-color="#015F9C" stop-opacity="0.643"/>
<stop offset="1" stop-color="#024C67"/>
</linearGradient>
<linearGradient id="paint20_linear_64_1550" x1="134.753" y1="392.823" x2="136.711" y2="382.611" gradientUnits="userSpaceOnUse">
<stop stop-color="#0182FC" stop-opacity="0"/>
<stop offset="0.192" stop-color="#017FF5" stop-opacity="0.04"/>
<stop offset="0.391" stop-color="#0179E3" stop-opacity="0.161"/>
<stop offset="0.5932" stop-color="#016EC6" stop-opacity="0.362"/>
<stop offset="0.7966" stop-color="#015F9C" stop-opacity="0.643"/>
<stop offset="1" stop-color="#024C67"/>
</linearGradient>
<linearGradient id="paint21_linear_64_1550" x1="63.2025" y1="468.006" x2="43.8287" y2="487.38" gradientUnits="userSpaceOnUse">
<stop stop-color="#8AC9FE" stop-opacity="0"/>
<stop offset="0.1291" stop-color="#89C8FD" stop-opacity="0.019"/>
<stop offset="0.2629" stop-color="#88C6FB" stop-opacity="0.075"/>
<stop offset="0.3989" stop-color="#87C4F8" stop-opacity="0.168"/>
<stop offset="0.5365" stop-color="#85C0F4" stop-opacity="0.298"/>
<stop offset="0.6753" stop-color="#83BBEF" stop-opacity="0.466"/>
<stop offset="0.8151" stop-color="#7FB5E9" stop-opacity="0.672"/>
<stop offset="0.9532" stop-color="#7CAEE1" stop-opacity="0.911"/>
<stop offset="1" stop-color="#7BACDF"/>
</linearGradient>
<clipPath id="clip0_64_1550">
<rect width="375" height="472" fill="white"/>
</clipPath>
<clipPath id="clip1_64_1550">
<rect width="200" height="200" fill="white" transform="translate(0 272)"/>
</clipPath>
</defs>
</svg>
