<svg width="1119" height="883" viewBox="0 0 1119 883" fill="none" xmlns="http://www.w3.org/2000/svg">
<path opacity="0.6" d="M559.5 -97.9531C709.005 -97.9531 830.203 27.2854 830.203 181.773C830.203 336.261 709.005 461.5 559.5 461.5C409.995 461.5 288.797 586.739 288.797 741.227C288.797 895.715 409.995 1020.95 559.5 1020.95C868.478 1020.95 1118.95 770.478 1118.95 461.5C1118.95 152.522 868.478 -97.9531 559.5 -97.9531Z" fill="url(#paint0_linear_2043_561)"/>
<path opacity="0.3" d="M288.797 741.227C288.797 586.739 409.995 461.5 559.5 461.5C709.005 461.5 830.203 336.261 830.203 181.773C830.203 27.2854 709.005 -97.9531 559.5 -97.9531C250.522 -97.9531 0.046875 152.522 0.046875 461.5C0.046875 770.478 250.522 1020.95 559.5 1020.95C409.995 1020.95 288.797 895.715 288.797 741.227Z" fill="url(#paint1_linear_2043_561)"/>
<defs>
<linearGradient id="paint0_linear_2043_561" x1="703.875" y1="-97.9531" x2="703.875" y2="1020.95" gradientUnits="userSpaceOnUse">
<stop stop-color="white"/>
<stop offset="1" stop-color="#FFD259" stop-opacity="0"/>
</linearGradient>
<linearGradient id="paint1_linear_2043_561" x1="415.125" y1="-97.9531" x2="415.125" y2="1020.95" gradientUnits="userSpaceOnUse">
<stop stop-color="white"/>
<stop offset="1" stop-color="#FFD259"/>
</linearGradient>
</defs>
</svg>
