<svg width="282" height="282" viewBox="0 0 282 282" fill="none" xmlns="http://www.w3.org/2000/svg">
<g clip-path="url(#clip0_38_556)">
<rect width="282" height="282" rx="16" fill="url(#paint0_linear_38_556)"/>
<rect width="282" height="282" rx="16" fill="#E9482E"/>
<path d="M0 16C0 7.16344 7.16344 0 16 0H267C275.837 0 283 7.16344 283 16V267C283 275.837 275.837 283 267 283H16C7.16344 283 0 275.837 0 267V16Z" fill="url(#paint1_linear_38_556)"/>
<path d="M0 16C0 7.16344 7.16344 0 16 0H267C275.837 0 283 7.16344 283 16V267C283 275.837 275.837 283 267 283H16C7.16344 283 0 275.837 0 267V16Z" fill="#E9482E"/>
<circle cx="128" cy="104" r="165" fill="url(#paint2_linear_38_556)"/>
<path d="M282 282V141C282 141 271.632 188.691 228.088 232.235C184.544 275.779 141 282 141 282H282Z" fill="url(#paint3_linear_38_556)"/>
<g clip-path="url(#clip1_38_556)">
<path opacity="0.5" d="M104.712 51.8677C102.103 51.181 99.3383 51.0821 96.6368 51.4984C97.227 51.5936 97.8124 51.7157 98.3898 51.8677C113.049 55.7275 117.632 74.0448 111.31 86.4453C105.445 97.9486 87.2057 111.603 78.9775 117.372C78.676 117.584 78.3623 117.769 78.0394 117.928C80.3533 119.072 83.1401 118.887 85.3002 117.372C93.5277 111.603 111.768 97.9486 117.632 86.4453C123.954 74.0448 119.371 55.7275 104.712 51.8677Z" fill="white"/>
<path d="M77.102 117.372C79.5629 119.098 82.8386 119.098 85.3002 117.372C93.5277 111.603 111.768 97.9486 117.633 86.4453C123.954 74.0448 119.371 55.7275 104.712 51.8676C96.195 49.6252 86.01 53.6425 81.8267 61.4257C81.5563 61.9287 80.8452 61.9287 80.5749 61.4257C76.3921 53.6425 66.2072 49.6252 57.6897 51.8676C43.0303 55.7275 38.4472 74.0448 44.7692 86.4453C50.6341 97.9486 68.8738 111.603 77.102 117.372Z" fill="white"/>
<path opacity="0.2" d="M120.82 103.511L108.373 115.958C105.434 118.896 100.67 118.896 97.7318 115.958L75.5046 93.7298C73.4453 91.6705 72.415 88.9709 72.415 86.2725C72.4169 83.5729 73.4453 80.8746 75.5046 78.8152C79.6239 74.6954 86.3024 74.6954 90.4204 78.8134L115.117 103.511C116.691 105.085 119.245 105.085 120.82 103.511Z" fill="#EA4B3B"/>
<path d="M88.8237 99.9507C88.524 99.9507 88.2243 99.8365 87.9955 99.6076L87.8307 99.4428C87.3735 98.9857 87.3735 98.2435 87.8307 97.7857C88.2884 97.3286 89.0306 97.3286 89.4884 97.7857L89.6526 97.9505C90.1103 98.4077 90.1103 99.1499 89.6526 99.6076C89.4237 99.8365 89.124 99.9507 88.8237 99.9507Z" fill="#EA4A39"/>
<path d="M92.1465 96.6286C91.8468 96.6286 91.5465 96.5139 91.3176 96.285L91.1534 96.1208C90.6957 95.663 90.6957 94.9208 91.1534 94.4637C91.6112 94.0059 92.3534 94.0059 92.8105 94.4637L92.9747 94.6279C93.4325 95.0856 93.4325 95.8278 92.9747 96.285C92.7458 96.5139 92.4462 96.6286 92.1465 96.6286Z" fill="#EA4A39"/>
<path d="M95.4686 93.3058C95.1689 93.3058 94.8693 93.1917 94.6404 92.9628L94.4762 92.798C94.0184 92.3403 94.0184 91.5987 94.4762 91.1409C94.9333 90.6832 95.6755 90.6832 96.1333 91.1409L96.2975 91.3051C96.7552 91.7629 96.7552 92.5051 96.2975 92.9628C96.0686 93.1911 95.7689 93.3058 95.4686 93.3058Z" fill="#EA4A39"/>
<path d="M86.1718 93.976C85.8715 93.976 85.5718 93.8619 85.3429 93.633L85.1787 93.4682C84.7209 93.0104 84.7209 92.2689 85.1787 91.8111C85.6365 91.3533 86.3781 91.3533 86.8358 91.8111L87 91.9753C87.4578 92.433 87.4578 93.1752 87 93.633C86.7711 93.8619 86.4714 93.976 86.1718 93.976Z" fill="#EA4A39"/>
<path d="M89.4939 90.6531C89.1942 90.6531 88.8945 90.539 88.6657 90.3107L88.5009 90.1459C88.0437 89.6888 88.0431 88.9466 88.5009 88.4888C88.9586 88.0311 89.7002 88.0311 90.158 88.4888L90.3228 88.653C90.7799 89.1102 90.7805 89.8524 90.3228 90.3101C90.0939 90.539 89.7942 90.6531 89.4939 90.6531Z" fill="#EA4A39"/>
</g>
<path d="M52.824 238.256C51.224 238.256 49.816 237.947 48.6 237.328C47.384 236.688 46.4453 235.803 45.784 234.672C45.1227 233.541 44.792 232.229 44.792 230.736V222.832C44.792 221.339 45.1227 220.027 45.784 218.896C46.4453 217.765 47.384 216.891 48.6 216.272C49.816 215.653 51.224 215.344 52.824 215.344C54.4027 215.344 55.8 215.643 57.016 216.24C58.232 216.837 59.1707 217.68 59.832 218.768C60.4933 219.856 60.824 221.115 60.824 222.544C60.824 222.651 60.7813 222.747 60.696 222.832C60.632 222.896 60.5467 222.928 60.44 222.928L57.496 223.088C57.24 223.088 57.112 222.971 57.112 222.736C57.112 221.477 56.7173 220.464 55.928 219.696C55.16 218.928 54.1253 218.544 52.824 218.544C51.5227 218.544 50.4773 218.928 49.688 219.696C48.8987 220.464 48.504 221.477 48.504 222.736V230.896C48.504 232.133 48.8987 233.136 49.688 233.904C50.4773 234.672 51.5227 235.056 52.824 235.056C54.1253 235.056 55.16 234.683 55.928 233.936C56.7173 233.168 57.112 232.155 57.112 230.896C57.112 230.661 57.24 230.544 57.496 230.544L60.44 230.672C60.5467 230.672 60.632 230.704 60.696 230.768C60.7813 230.832 60.824 230.907 60.824 230.992C60.824 232.443 60.4933 233.723 59.832 234.832C59.1707 235.92 58.232 236.763 57.016 237.36C55.8 237.957 54.4027 238.256 52.824 238.256ZM71.3328 221.392C73.0608 221.392 74.4368 221.904 75.4608 222.928C76.5061 223.952 77.0288 225.349 77.0288 227.12V237.616C77.0288 237.723 76.9861 237.819 76.9008 237.904C76.8368 237.968 76.7514 238 76.6448 238H73.7008C73.5941 238 73.4981 237.968 73.4128 237.904C73.3488 237.819 73.3168 237.723 73.3168 237.616V227.888C73.3168 226.907 73.0394 226.117 72.4848 225.52C71.9301 224.901 71.1941 224.592 70.2768 224.592C69.3594 224.592 68.6128 224.891 68.0368 225.488C67.4821 226.085 67.2048 226.875 67.2048 227.856V237.616C67.2048 237.723 67.1621 237.819 67.0768 237.904C67.0128 237.968 66.9274 238 66.8208 238H63.8768C63.7701 238 63.6741 237.968 63.5888 237.904C63.5248 237.819 63.4928 237.723 63.4928 237.616V215.984C63.4928 215.877 63.5248 215.792 63.5888 215.728C63.6741 215.643 63.7701 215.6 63.8768 215.6H66.8208C66.9274 215.6 67.0128 215.643 67.0768 215.728C67.1621 215.792 67.2048 215.877 67.2048 215.984V223.056C67.2048 223.12 67.2261 223.163 67.2688 223.184C67.3114 223.205 67.3434 223.184 67.3648 223.12C68.2394 221.968 69.5621 221.392 71.3328 221.392ZM96.195 218.928C96.451 218.928 96.579 219.056 96.579 219.312C96.4937 220.357 96.163 221.221 95.587 221.904C95.011 222.565 94.2857 223.035 93.411 223.312C93.3257 223.333 93.283 223.387 93.283 223.472V237.616C93.283 237.723 93.2403 237.819 93.155 237.904C93.091 237.968 93.0057 238 92.899 238H89.987C89.8803 238 89.7843 237.968 89.699 237.904C89.635 237.819 89.603 237.723 89.603 237.616V236.592C89.603 236.528 89.5817 236.485 89.539 236.464C89.4963 236.443 89.4537 236.464 89.411 236.528C88.5363 237.659 87.2243 238.224 85.475 238.224C83.8537 238.224 82.4883 237.755 81.379 236.816C80.291 235.877 79.747 234.544 79.747 232.816V222.032C79.747 221.925 79.779 221.84 79.843 221.776C79.9283 221.691 80.0243 221.648 80.131 221.648H83.075C83.1817 221.648 83.267 221.691 83.331 221.776C83.4163 221.84 83.459 221.925 83.459 222.032V231.76C83.459 232.763 83.715 233.563 84.227 234.16C84.7603 234.757 85.4963 235.056 86.435 235.056C87.395 235.056 88.163 234.757 88.739 234.16C89.315 233.563 89.603 232.763 89.603 231.76V222.032C89.603 221.925 89.635 221.84 89.699 221.776C89.7843 221.691 89.8803 221.648 89.987 221.648H91.651C92.2697 221.648 92.835 221.477 93.347 221.136C93.8803 220.773 94.179 220.165 94.243 219.312C94.2857 219.056 94.4243 218.928 94.659 218.928H96.195ZM88.643 219.312C88.2377 219.312 87.8963 219.269 87.619 219.184C87.3417 219.077 86.9897 218.917 86.563 218.704C86.499 218.661 86.339 218.587 86.083 218.48C85.8483 218.352 85.6457 218.267 85.475 218.224C85.3043 218.16 85.1337 218.128 84.963 218.128C84.6003 218.128 84.2803 218.192 84.003 218.32C83.747 218.427 83.5017 218.608 83.267 218.864C83.1603 218.971 83.0537 219.024 82.947 219.024C82.8617 219.024 82.787 218.981 82.723 218.896L81.699 217.808C81.5283 217.637 81.507 217.467 81.635 217.296C81.9763 216.72 82.4137 216.272 82.947 215.952C83.5017 215.632 84.1097 215.472 84.771 215.472C85.1977 215.472 85.5603 215.536 85.859 215.664C86.1577 215.771 86.5523 215.952 87.043 216.208C87.4483 216.421 87.7577 216.571 87.971 216.656C88.1843 216.741 88.4083 216.784 88.643 216.784C89.283 216.784 89.8163 216.517 90.243 215.984C90.3497 215.877 90.4457 215.824 90.531 215.824C90.6377 215.824 90.723 215.867 90.787 215.952L91.715 217.04C91.843 217.189 91.875 217.349 91.811 217.52C91.5337 218.075 91.107 218.512 90.531 218.832C89.9763 219.152 89.347 219.312 88.643 219.312ZM102.625 221.392C103.969 221.392 105.153 221.627 106.177 222.096C107.201 222.565 107.991 223.216 108.545 224.048C109.1 224.859 109.377 225.787 109.377 226.832V237.616C109.377 237.723 109.335 237.819 109.249 237.904C109.185 237.968 109.1 238 108.993 238H106.049C105.943 238 105.847 237.968 105.761 237.904C105.697 237.819 105.665 237.723 105.665 237.616V236.592C105.665 236.528 105.644 236.496 105.601 236.496C105.559 236.475 105.516 236.485 105.473 236.528C104.428 237.68 102.913 238.256 100.929 238.256C99.3292 238.256 98.0066 237.851 96.9612 237.04C95.9372 236.229 95.4252 235.024 95.4252 233.424C95.4252 231.76 96.0012 230.469 97.1532 229.552C98.3266 228.613 99.9692 228.144 102.081 228.144H105.505C105.612 228.144 105.665 228.091 105.665 227.984V227.216C105.665 226.384 105.42 225.744 104.929 225.296C104.439 224.827 103.703 224.592 102.721 224.592C101.911 224.592 101.249 224.741 100.737 225.04C100.247 225.317 99.9372 225.712 99.8092 226.224C99.7452 226.48 99.5959 226.587 99.3612 226.544L96.2572 226.16C96.1506 226.139 96.0546 226.107 95.9692 226.064C95.9052 226 95.8839 225.925 95.9052 225.84C96.0759 224.539 96.7692 223.472 97.9852 222.64C99.2226 221.808 100.769 221.392 102.625 221.392ZM101.857 235.312C102.903 235.312 103.799 235.035 104.545 234.48C105.292 233.925 105.665 233.221 105.665 232.368V230.864C105.665 230.757 105.612 230.704 105.505 230.704H102.817C101.687 230.704 100.791 230.917 100.129 231.344C99.4892 231.771 99.1692 232.379 99.1692 233.168C99.1692 233.851 99.4146 234.384 99.9052 234.768C100.417 235.131 101.068 235.312 101.857 235.312ZM117.974 238C117.868 238 117.772 237.968 117.686 237.904C117.622 237.819 117.59 237.723 117.59 237.616V215.984C117.59 215.877 117.622 215.792 117.686 215.728C117.772 215.643 117.868 215.6 117.974 215.6H120.918C121.025 215.6 121.11 215.643 121.174 215.728C121.26 215.792 121.302 215.877 121.302 215.984V237.616C121.302 237.723 121.26 237.819 121.174 237.904C121.11 237.968 121.025 238 120.918 238H117.974ZM130.526 221.392C131.87 221.392 133.054 221.627 134.078 222.096C135.102 222.565 135.892 223.216 136.446 224.048C137.001 224.859 137.278 225.787 137.278 226.832V237.616C137.278 237.723 137.236 237.819 137.15 237.904C137.086 237.968 137.001 238 136.894 238H133.95C133.844 238 133.748 237.968 133.662 237.904C133.598 237.819 133.566 237.723 133.566 237.616V236.592C133.566 236.528 133.545 236.496 133.502 236.496C133.46 236.475 133.417 236.485 133.374 236.528C132.329 237.68 130.814 238.256 128.83 238.256C127.23 238.256 125.908 237.851 124.862 237.04C123.838 236.229 123.326 235.024 123.326 233.424C123.326 231.76 123.902 230.469 125.054 229.552C126.228 228.613 127.87 228.144 129.982 228.144H133.406C133.513 228.144 133.566 228.091 133.566 227.984V227.216C133.566 226.384 133.321 225.744 132.83 225.296C132.34 224.827 131.604 224.592 130.622 224.592C129.812 224.592 129.15 224.741 128.638 225.04C128.148 225.317 127.838 225.712 127.71 226.224C127.646 226.48 127.497 226.587 127.262 226.544L124.158 226.16C124.052 226.139 123.956 226.107 123.87 226.064C123.806 226 123.785 225.925 123.806 225.84C123.977 224.539 124.67 223.472 125.886 222.64C127.124 221.808 128.67 221.392 130.526 221.392ZM129.758 235.312C130.804 235.312 131.7 235.035 132.446 234.48C133.193 233.925 133.566 233.221 133.566 232.368V230.864C133.566 230.757 133.513 230.704 133.406 230.704H130.718C129.588 230.704 128.692 230.917 128.03 231.344C127.39 231.771 127.07 232.379 127.07 233.168C127.07 233.851 127.316 234.384 127.806 234.768C128.318 235.131 128.969 235.312 129.758 235.312ZM131.998 219.152C132.041 219.237 132.062 219.301 132.062 219.344C132.062 219.515 131.956 219.6 131.742 219.6H129.63C129.438 219.6 129.289 219.515 129.182 219.344L126.974 216.08C126.932 215.995 126.91 215.92 126.91 215.856C126.91 215.685 127.017 215.6 127.23 215.6H129.758C129.993 215.6 130.153 215.685 130.238 215.856L131.998 219.152ZM147.885 221.392C149.613 221.392 150.989 221.904 152.013 222.928C153.059 223.952 153.581 225.349 153.581 227.12V237.616C153.581 237.723 153.539 237.819 153.453 237.904C153.389 237.968 153.304 238 153.197 238H150.253C150.147 238 150.051 237.968 149.965 237.904C149.901 237.819 149.869 237.723 149.869 237.616V227.888C149.869 226.907 149.592 226.117 149.037 225.52C148.483 224.901 147.747 224.592 146.829 224.592C145.912 224.592 145.165 224.891 144.589 225.488C144.035 226.085 143.757 226.875 143.757 227.856V237.616C143.757 237.723 143.715 237.819 143.629 237.904C143.565 237.968 143.48 238 143.373 238H140.429C140.323 238 140.227 237.968 140.141 237.904C140.077 237.819 140.045 237.723 140.045 237.616V222.032C140.045 221.925 140.077 221.84 140.141 221.776C140.227 221.691 140.323 221.648 140.429 221.648H143.373C143.48 221.648 143.565 221.691 143.629 221.776C143.715 221.84 143.757 221.925 143.757 222.032V223.056C143.757 223.12 143.779 223.163 143.821 223.184C143.864 223.205 143.896 223.184 143.917 223.12C144.792 221.968 146.115 221.392 147.885 221.392ZM164.3 221.392C166.028 221.392 167.404 221.904 168.428 222.928C169.474 223.952 169.996 225.349 169.996 227.12V237.616C169.996 237.723 169.954 237.819 169.868 237.904C169.804 237.968 169.719 238 169.612 238H166.668C166.562 238 166.466 237.968 166.38 237.904C166.316 237.819 166.284 237.723 166.284 237.616V227.888C166.284 226.907 166.007 226.117 165.452 225.52C164.898 224.901 164.162 224.592 163.244 224.592C162.327 224.592 161.58 224.891 161.004 225.488C160.45 226.085 160.172 226.875 160.172 227.856V237.616C160.172 237.723 160.13 237.819 160.044 237.904C159.98 237.968 159.895 238 159.788 238H156.844C156.738 238 156.642 237.968 156.556 237.904C156.492 237.819 156.46 237.723 156.46 237.616V215.984C156.46 215.877 156.492 215.792 156.556 215.728C156.642 215.643 156.738 215.6 156.844 215.6H159.788C159.895 215.6 159.98 215.643 160.044 215.728C160.13 215.792 160.172 215.877 160.172 215.984V223.056C160.172 223.12 160.194 223.163 160.236 223.184C160.279 223.205 160.311 223.184 160.332 223.12C161.207 221.968 162.53 221.392 164.3 221.392Z" fill="white"/>
</g>
<defs>
<linearGradient id="paint0_linear_38_556" x1="1.43094e-07" y1="-74.9063" x2="285.635" y2="-69.9858" gradientUnits="userSpaceOnUse">
<stop stop-color="#FFD4CA"/>
<stop offset="1" stop-color="#EB4747"/>
</linearGradient>
<linearGradient id="paint1_linear_38_556" x1="1.43601e-07" y1="-75.1719" x2="286.647" y2="-70.2339" gradientUnits="userSpaceOnUse">
<stop stop-color="#FFD4CA"/>
<stop offset="1" stop-color="#EB4747"/>
</linearGradient>
<linearGradient id="paint2_linear_38_556" x1="200" y1="212.5" x2="5.51772" y2="-9.12053" gradientUnits="userSpaceOnUse">
<stop stop-color="#E53C45" stop-opacity="0"/>
<stop offset="1" stop-color="#FF8288"/>
</linearGradient>
<linearGradient id="paint3_linear_38_556" x1="212" y1="224.5" x2="251.156" y2="282" gradientUnits="userSpaceOnUse">
<stop stop-color="#FF5C00"/>
<stop offset="1" stop-color="#FFDB59"/>
</linearGradient>
<clipPath id="clip0_38_556">
<rect width="282" height="282" rx="16" fill="white"/>
</clipPath>
<clipPath id="clip1_38_556">
<rect width="80" height="80" fill="white" transform="translate(42 45)"/>
</clipPath>
</defs>
</svg>
