<svg width="282" height="282" viewBox="0 0 282 282" fill="none" xmlns="http://www.w3.org/2000/svg">
<g clip-path="url(#clip0_38_496)">
<rect width="282" height="282" rx="16" fill="url(#paint0_linear_38_496)"/>
<rect width="282" height="282" rx="16" fill="#E9482E"/>
<path d="M0 16C0 7.16344 7.16344 0 16 0H267C275.837 0 283 7.16344 283 16V267C283 275.837 275.837 283 267 283H16C7.16344 283 0 275.837 0 267V16Z" fill="url(#paint1_linear_38_496)"/>
<path d="M0 16C0 7.16344 7.16344 0 16 0H267C275.837 0 283 7.16344 283 16V267C283 275.837 275.837 283 267 283H16C7.16344 283 0 275.837 0 267V16Z" fill="#E9482E"/>
<circle cx="128" cy="104" r="165" fill="url(#paint2_linear_38_496)"/>
<path d="M282 282V141C282 141 271.632 188.691 228.088 232.235C184.544 275.779 141 282 141 282H282Z" fill="url(#paint3_linear_38_496)"/>
<path opacity="0.5" d="M105.317 104.31C110.049 96.9147 113.579 88.0002 113.579 79.2205L111.558 57.0052C102.077 56.8078 92.9348 53.3956 85.6369 47.3141L83.3077 45.3731C82.7108 44.8756 81.8436 44.8756 81.2467 45.3731L78.9175 47.3142C71.3961 53.5819 61.9155 57.0144 52.125 57.0144C50.8283 57.0144 49.7772 58.0655 49.7772 59.3622V78.6694C49.7772 97.8188 60.9114 115.22 78.2983 123.245L78.4361 123.309L85.8105 122.508C93.7819 118.829 100.586 111.705 105.317 104.31Z" fill="white"/>
<path d="M99.6375 99.9999C103.596 93.8133 105.834 83.5793 105.834 76.2352L104.058 63.2174C96.2614 61.8711 88.8528 58.6621 82.5197 53.8391C82.3761 53.7297 82.1783 53.7297 82.0347 53.8391C74.9309 59.2491 66.4742 62.6282 57.6345 63.6257C57.4311 63.6486 57.2772 63.8194 57.2772 64.0241V78.0908C57.2772 86.0511 59.545 93.8029 63.8352 100.508C67.5092 106.251 72.5019 110.968 78.3998 114.299C86.5445 111.428 95.03 107.201 99.6375 99.9999Z" fill="white"/>
<path d="M57.848 226.32C57.72 226.384 57.72 226.448 57.848 226.512C60.024 227.536 61.112 229.296 61.112 231.792C61.112 233.819 60.4293 235.365 59.064 236.432C57.72 237.477 55.96 238 53.784 238H45.72C45.6133 238 45.5173 237.968 45.432 237.904C45.368 237.819 45.336 237.723 45.336 237.616V215.984C45.336 215.877 45.368 215.792 45.432 215.728C45.5173 215.643 45.6133 215.6 45.72 215.6H53.528C55.8533 215.6 57.6453 216.101 58.904 217.104C60.1627 218.107 60.792 219.621 60.792 221.648C60.792 223.888 59.8107 225.445 57.848 226.32ZM49.208 218.8C49.1013 218.8 49.048 218.853 49.048 218.96V224.88C49.048 224.987 49.1013 225.04 49.208 225.04H53.528C54.6587 225.04 55.544 224.773 56.184 224.24C56.8453 223.685 57.176 222.928 57.176 221.968C57.176 220.987 56.8453 220.219 56.184 219.664C55.544 219.088 54.6587 218.8 53.528 218.8H49.208ZM53.784 234.768C54.8933 234.768 55.768 234.469 56.408 233.872C57.0693 233.275 57.4 232.464 57.4 231.44C57.4 230.395 57.0693 229.584 56.408 229.008C55.7467 228.411 54.8507 228.112 53.72 228.112H49.208C49.1013 228.112 49.048 228.165 49.048 228.272V234.608C49.048 234.715 49.1013 234.768 49.208 234.768H53.784ZM64.1223 238C64.0156 238 63.9196 237.968 63.8343 237.904C63.7703 237.819 63.7383 237.723 63.7383 237.616V222.032C63.7383 221.925 63.7703 221.84 63.8343 221.776C63.9196 221.691 64.0156 221.648 64.1223 221.648H67.0663C67.1729 221.648 67.2583 221.691 67.3223 221.776C67.4076 221.84 67.4503 221.925 67.4503 222.032V237.616C67.4503 237.723 67.4076 237.819 67.3223 237.904C67.2583 237.968 67.1729 238 67.0663 238H64.1223ZM66.9383 219.152C66.9809 219.237 67.0023 219.301 67.0023 219.344C67.0023 219.515 66.8956 219.6 66.6823 219.6H64.5703C64.3783 219.6 64.2289 219.515 64.1223 219.344L61.9143 216.08C61.8716 215.995 61.8503 215.92 61.8503 215.856C61.8503 215.685 61.9569 215.6 62.1703 215.6H64.6983C64.9329 215.6 65.0929 215.685 65.1783 215.856L66.9383 219.152ZM78.0915 221.392C79.8195 221.392 81.1955 221.904 82.2195 222.928C83.2648 223.952 83.7875 225.349 83.7875 227.12V237.616C83.7875 237.723 83.7448 237.819 83.6595 237.904C83.5955 237.968 83.5102 238 83.4035 238H80.4595C80.3528 238 80.2568 237.968 80.1715 237.904C80.1075 237.819 80.0755 237.723 80.0755 237.616V227.888C80.0755 226.907 79.7982 226.117 79.2435 225.52C78.6888 224.901 77.9528 224.592 77.0355 224.592C76.1182 224.592 75.3715 224.891 74.7955 225.488C74.2408 226.085 73.9635 226.875 73.9635 227.856V237.616C73.9635 237.723 73.9208 237.819 73.8355 237.904C73.7715 237.968 73.6862 238 73.5795 238H70.6355C70.5288 238 70.4328 237.968 70.3475 237.904C70.2835 237.819 70.2515 237.723 70.2515 237.616V222.032C70.2515 221.925 70.2835 221.84 70.3475 221.776C70.4328 221.691 70.5288 221.648 70.6355 221.648H73.5795C73.6862 221.648 73.7715 221.691 73.8355 221.776C73.9208 221.84 73.9635 221.925 73.9635 222.032V223.056C73.9635 223.12 73.9848 223.163 74.0275 223.184C74.0702 223.205 74.1022 223.184 74.1235 223.12C74.9982 221.968 76.3208 221.392 78.0915 221.392ZM94.5065 221.392C96.2345 221.392 97.6105 221.904 98.6345 222.928C99.6798 223.952 100.202 225.349 100.202 227.12V237.616C100.202 237.723 100.16 237.819 100.075 237.904C100.01 237.968 99.9252 238 99.8185 238H96.8745C96.7678 238 96.6718 237.968 96.5865 237.904C96.5225 237.819 96.4905 237.723 96.4905 237.616V227.888C96.4905 226.907 96.2132 226.117 95.6585 225.52C95.1038 224.901 94.3678 224.592 93.4505 224.592C92.5332 224.592 91.7865 224.891 91.2105 225.488C90.6558 226.085 90.3785 226.875 90.3785 227.856V237.616C90.3785 237.723 90.3358 237.819 90.2505 237.904C90.1865 237.968 90.1012 238 89.9945 238H87.0505C86.9438 238 86.8478 237.968 86.7625 237.904C86.6985 237.819 86.6665 237.723 86.6665 237.616V215.984C86.6665 215.877 86.6985 215.792 86.7625 215.728C86.8478 215.643 86.9438 215.6 87.0505 215.6H89.9945C90.1012 215.6 90.1865 215.643 90.2505 215.728C90.3358 215.792 90.3785 215.877 90.3785 215.984V223.056C90.3785 223.12 90.3998 223.163 90.4425 223.184C90.4852 223.205 90.5172 223.184 90.5385 223.12C91.4132 221.968 92.7358 221.392 94.5065 221.392ZM114.799 221.392C116.143 221.392 117.327 221.627 118.351 222.096C119.375 222.565 120.164 223.216 120.719 224.048C121.274 224.859 121.551 225.787 121.551 226.832V237.616C121.551 237.723 121.508 237.819 121.423 237.904C121.359 237.968 121.274 238 121.167 238H118.223C118.116 238 118.02 237.968 117.935 237.904C117.871 237.819 117.839 237.723 117.839 237.616V236.592C117.839 236.528 117.818 236.496 117.775 236.496C117.732 236.475 117.69 236.485 117.647 236.528C116.602 237.68 115.087 238.256 113.103 238.256C111.503 238.256 110.18 237.851 109.135 237.04C108.111 236.229 107.599 235.024 107.599 233.424C107.599 231.76 108.175 230.469 109.327 229.552C110.5 228.613 112.143 228.144 114.255 228.144H117.679C117.786 228.144 117.839 228.091 117.839 227.984V227.216C117.839 226.384 117.594 225.744 117.103 225.296C116.612 224.827 115.876 224.592 114.895 224.592C114.084 224.592 113.423 224.741 112.911 225.04C112.42 225.317 112.111 225.712 111.983 226.224C111.919 226.48 111.77 226.587 111.535 226.544L108.431 226.16C108.324 226.139 108.228 226.107 108.143 226.064C108.079 226 108.058 225.925 108.079 225.84C108.25 224.539 108.943 223.472 110.159 222.64C111.396 221.808 112.943 221.392 114.799 221.392ZM114.031 235.312C115.076 235.312 115.972 235.035 116.719 234.48C117.466 233.925 117.839 233.221 117.839 232.368V230.864C117.839 230.757 117.786 230.704 117.679 230.704H114.991C113.86 230.704 112.964 230.917 112.303 231.344C111.663 231.771 111.343 232.379 111.343 233.168C111.343 233.851 111.588 234.384 112.079 234.768C112.591 235.131 113.242 235.312 114.031 235.312ZM132.158 221.392C133.886 221.392 135.262 221.904 136.286 222.928C137.331 223.952 137.854 225.349 137.854 227.12V237.616C137.854 237.723 137.811 237.819 137.726 237.904C137.662 237.968 137.576 238 137.47 238H134.526C134.419 238 134.323 237.968 134.238 237.904C134.174 237.819 134.142 237.723 134.142 237.616V227.888C134.142 226.907 133.864 226.117 133.31 225.52C132.755 224.901 132.019 224.592 131.102 224.592C130.184 224.592 129.438 224.891 128.862 225.488C128.307 226.085 128.03 226.875 128.03 227.856V237.616C128.03 237.723 127.987 237.819 127.902 237.904C127.838 237.968 127.752 238 127.646 238H124.702C124.595 238 124.499 237.968 124.414 237.904C124.35 237.819 124.318 237.723 124.318 237.616V222.032C124.318 221.925 124.35 221.84 124.414 221.776C124.499 221.691 124.595 221.648 124.702 221.648H127.646C127.752 221.648 127.838 221.691 127.902 221.776C127.987 221.84 128.03 221.925 128.03 222.032V223.056C128.03 223.12 128.051 223.163 128.094 223.184C128.136 223.205 128.168 223.184 128.19 223.12C129.064 221.968 130.387 221.392 132.158 221.392Z" fill="white"/>
</g>
<defs>
<linearGradient id="paint0_linear_38_496" x1="1.43094e-07" y1="-74.9063" x2="285.635" y2="-69.9858" gradientUnits="userSpaceOnUse">
<stop stop-color="#FFD4CA"/>
<stop offset="1" stop-color="#EB4747"/>
</linearGradient>
<linearGradient id="paint1_linear_38_496" x1="1.43601e-07" y1="-75.1719" x2="286.647" y2="-70.2339" gradientUnits="userSpaceOnUse">
<stop stop-color="#FFD4CA"/>
<stop offset="1" stop-color="#EB4747"/>
</linearGradient>
<linearGradient id="paint2_linear_38_496" x1="200" y1="212.5" x2="5.51772" y2="-9.12053" gradientUnits="userSpaceOnUse">
<stop stop-color="#E53C45" stop-opacity="0"/>
<stop offset="1" stop-color="#FF8288"/>
</linearGradient>
<linearGradient id="paint3_linear_38_496" x1="212" y1="224.5" x2="251.156" y2="282" gradientUnits="userSpaceOnUse">
<stop stop-color="#FF5C00"/>
<stop offset="1" stop-color="#FFDB59"/>
</linearGradient>
<clipPath id="clip0_38_496">
<rect width="282" height="282" rx="16" fill="white"/>
</clipPath>
</defs>
</svg>
