<svg width="282" height="282" viewBox="0 0 282 282" fill="none" xmlns="http://www.w3.org/2000/svg">
<g clip-path="url(#clip0_38_534)">
<rect width="282" height="282" rx="16" fill="url(#paint0_linear_38_534)"/>
<rect width="282" height="282" rx="16" fill="#E9482E"/>
<path d="M0 16C0 7.16344 7.16344 0 16 0H267C275.837 0 283 7.16344 283 16V267C283 275.837 275.837 283 267 283H16C7.16344 283 0 275.837 0 267V16Z" fill="url(#paint1_linear_38_534)"/>
<path d="M0 16C0 7.16344 7.16344 0 16 0H267C275.837 0 283 7.16344 283 16V267C283 275.837 275.837 283 267 283H16C7.16344 283 0 275.837 0 267V16Z" fill="#E9482E"/>
<circle cx="128" cy="104" r="165" fill="url(#paint2_linear_38_534)"/>
<path d="M282 282V141C282 141 271.632 188.691 228.088 232.235C184.544 275.779 141 282 141 282H282Z" fill="url(#paint3_linear_38_534)"/>
<g clip-path="url(#clip1_38_534)">
<path d="M112.354 75.3552C112.354 92.4993 103.151 106.002 94.8818 114.676C83.3512 114.676 86.7717 99.5638 88.6371 94.4615L80.4829 55.3891C77.5888 53.3945 76.3481 46.9749 81.6085 45.0028C98.5054 44.776 112.368 58.4528 112.354 75.3552Z" fill="white"/>
<path d="M94.8818 114.675C90.2892 119.492 85.984 122.819 83.7003 124.454C82.6823 125.182 81.3179 125.182 80.2999 124.454C73.9047 119.873 51.6458 102.018 51.6458 75.3546C51.6458 58.7205 65.0248 45.2121 81.6087 45.002C78.4686 47.196 78.4004 52.5245 81.2945 54.5192L90.345 94.4608C88.4795 99.5634 86.5818 111.262 94.8818 114.675Z" fill="white"/>
<path d="M65.3332 78.3335C64.4126 78.3335 63.6666 77.4133 63.6666 76.2776V72.8893C63.6666 71.7537 64.4126 70.8335 65.3332 70.8335C66.2539 70.8335 66.9999 71.7537 66.9999 72.8893V76.2776C66.9999 77.413 66.2539 78.3335 65.3332 78.3335Z" fill="#EB4E41"/>
<path d="M98.6665 78.3335C97.7458 78.3335 96.9998 77.4133 96.9998 76.2776V72.8893C96.9998 71.7537 97.7458 70.8335 98.6665 70.8335C99.5872 70.8335 100.333 71.7537 100.333 72.8893V76.2776C100.333 77.413 99.5872 78.3335 98.6665 78.3335Z" fill="#EB4E41"/>
<path d="M81.9997 80.0001C79.6376 80.0001 77.3911 79.0366 75.8365 77.3567C75.0947 76.5554 75.1832 75.3394 76.0344 74.641C76.8852 73.9418 78.1763 74.0255 78.9181 74.8273C79.6962 75.6679 80.8196 76.1502 82 76.1502C83.1803 76.1502 84.3035 75.6679 85.0818 74.8273C85.8231 74.026 87.1144 73.9421 87.9656 74.641C88.8167 75.3394 88.905 76.5554 88.1634 77.3567C86.6083 79.0366 84.3618 80.0001 81.9997 80.0001Z" fill="#EB4E41"/>
</g>
<path d="M51.128 238C50.9147 238 50.776 237.893 50.712 237.68L43.992 216.048L43.96 215.92C43.96 215.707 44.0773 215.6 44.312 215.6H47.48C47.7147 215.6 47.864 215.707 47.928 215.92L52.728 232.624C52.7493 232.688 52.7813 232.72 52.824 232.72C52.8667 232.72 52.8987 232.688 52.92 232.624L57.688 215.92C57.752 215.707 57.9013 215.6 58.136 215.6H61.24C61.368 215.6 61.464 215.643 61.528 215.728C61.592 215.813 61.6027 215.92 61.56 216.048L54.744 237.68C54.68 237.893 54.5413 238 54.328 238H51.128ZM72.7193 222.032C72.7193 221.925 72.7513 221.84 72.8153 221.776C72.9006 221.691 72.9966 221.648 73.1033 221.648H76.0153C76.1219 221.648 76.2073 221.691 76.2713 221.776C76.3566 221.84 76.3993 221.925 76.3993 222.032V237.616C76.3993 237.723 76.3566 237.819 76.2713 237.904C76.2073 237.968 76.1219 238 76.0153 238H73.1033C72.9966 238 72.9006 237.968 72.8153 237.904C72.7513 237.819 72.7193 237.723 72.7193 237.616V236.592C72.7193 236.528 72.6979 236.485 72.6553 236.464C72.6126 236.443 72.5699 236.464 72.5273 236.528C71.6526 237.659 70.3406 238.224 68.5913 238.224C66.9699 238.224 65.6046 237.755 64.4953 236.816C63.4073 235.877 62.8633 234.544 62.8633 232.816V222.032C62.8633 221.925 62.8953 221.84 62.9593 221.776C63.0446 221.691 63.1406 221.648 63.2473 221.648H66.1913C66.2979 221.648 66.3833 221.691 66.4473 221.776C66.5326 221.84 66.5753 221.925 66.5753 222.032V231.76C66.5753 232.763 66.8313 233.563 67.3433 234.16C67.8766 234.757 68.6126 235.056 69.5513 235.056C70.5113 235.056 71.2793 234.757 71.8553 234.16C72.4313 233.563 72.7193 232.763 72.7193 231.76V222.032ZM81.5198 219.408C80.8584 219.408 80.3144 219.195 79.8878 218.768C79.4611 218.341 79.2478 217.797 79.2478 217.136C79.2478 216.475 79.4611 215.931 79.8878 215.504C80.3144 215.077 80.8584 214.864 81.5198 214.864C82.1811 214.864 82.7251 215.077 83.1518 215.504C83.5784 215.931 83.7918 216.475 83.7918 217.136C83.7918 217.797 83.5784 218.341 83.1518 218.768C82.7251 219.195 82.1811 219.408 81.5198 219.408ZM79.9838 238C79.8771 238 79.7811 237.968 79.6958 237.904C79.6318 237.819 79.5998 237.723 79.5998 237.616V222C79.5998 221.893 79.6318 221.808 79.6958 221.744C79.7811 221.659 79.8771 221.616 79.9838 221.616H82.9278C83.0344 221.616 83.1198 221.659 83.1838 221.744C83.2691 221.808 83.3118 221.893 83.3118 222V237.616C83.3118 237.723 83.2691 237.819 83.1838 237.904C83.1198 237.968 83.0344 238 82.9278 238H79.9838ZM96.4662 238C96.2529 238 96.1143 237.893 96.0503 237.68L90.8982 222.064C90.8769 222.021 90.8662 221.968 90.8662 221.904C90.8662 221.712 90.9836 221.616 91.2182 221.616H94.4823C94.7169 221.616 94.8663 221.723 94.9303 221.936L98.0343 232.624C98.0556 232.688 98.0876 232.72 98.1302 232.72C98.1729 232.72 98.2049 232.688 98.2263 232.624L101.33 221.936C101.394 221.723 101.544 221.616 101.778 221.616L105.042 221.68C105.17 221.68 105.266 221.723 105.33 221.808C105.394 221.872 105.405 221.979 105.362 222.128L100.242 237.68C100.178 237.893 100.04 238 99.8263 238H96.4662ZM120.132 227.984C120.218 228.517 120.26 229.115 120.26 229.776L120.228 230.768C120.228 231.024 120.1 231.152 119.844 231.152H109.828C109.722 231.152 109.668 231.205 109.668 231.312C109.732 232.016 109.828 232.496 109.956 232.752C110.468 234.288 111.716 235.067 113.7 235.088C115.151 235.088 116.303 234.491 117.156 233.296C117.242 233.168 117.348 233.104 117.476 233.104C117.562 233.104 117.636 233.136 117.7 233.2L119.684 234.832C119.876 234.981 119.908 235.152 119.78 235.344C119.119 236.283 118.234 237.008 117.124 237.52C116.036 238.032 114.82 238.288 113.476 238.288C111.812 238.288 110.394 237.915 109.22 237.168C108.068 236.421 107.226 235.376 106.692 234.032C106.202 232.88 105.956 231.28 105.956 229.232C105.956 227.995 106.084 226.992 106.34 226.224C106.767 224.731 107.567 223.557 108.74 222.704C109.935 221.829 111.364 221.392 113.028 221.392C117.231 221.392 119.599 223.589 120.132 227.984ZM113.028 224.592C112.239 224.592 111.578 224.795 111.044 225.2C110.532 225.584 110.17 226.128 109.956 226.832C109.828 227.195 109.743 227.664 109.7 228.24C109.658 228.347 109.7 228.4 109.828 228.4H116.324C116.431 228.4 116.484 228.347 116.484 228.24C116.442 227.707 116.378 227.301 116.292 227.024C116.1 226.256 115.716 225.659 115.14 225.232C114.586 224.805 113.882 224.592 113.028 224.592ZM112.644 220.144C112.516 220.123 112.42 220.069 112.356 219.984C112.314 219.899 112.314 219.792 112.356 219.664C112.591 219.088 112.943 218.565 113.412 218.096C113.647 217.861 113.818 217.659 113.924 217.488C114.031 217.296 114.084 217.051 114.084 216.752C114.084 216.517 113.978 216.304 113.764 216.112C113.551 215.92 113.306 215.824 113.028 215.824C112.73 215.824 112.474 215.899 112.26 216.048C112.047 216.197 111.791 216.464 111.492 216.848C111.407 216.976 111.3 217.04 111.172 217.04C111.066 217.04 110.98 217.008 110.916 216.944L110.084 216.336C109.978 216.272 109.924 216.176 109.924 216.048C109.924 215.941 109.946 215.856 109.988 215.792C110.436 215.152 110.884 214.693 111.332 214.416C111.802 214.139 112.399 214 113.124 214C114.02 214 114.735 214.245 115.268 214.736C115.823 215.227 116.1 215.899 116.1 216.752C116.1 217.243 115.994 217.648 115.78 217.968C115.588 218.288 115.29 218.651 114.884 219.056C114.5 219.44 114.223 219.781 114.052 220.08C113.924 220.315 113.764 220.4 113.572 220.336L112.644 220.144Z" fill="white"/>
</g>
<defs>
<linearGradient id="paint0_linear_38_534" x1="1.43094e-07" y1="-74.9063" x2="285.635" y2="-69.9858" gradientUnits="userSpaceOnUse">
<stop stop-color="#FFD4CA"/>
<stop offset="1" stop-color="#EB4747"/>
</linearGradient>
<linearGradient id="paint1_linear_38_534" x1="1.43601e-07" y1="-75.1719" x2="286.647" y2="-70.2339" gradientUnits="userSpaceOnUse">
<stop stop-color="#FFD4CA"/>
<stop offset="1" stop-color="#EB4747"/>
</linearGradient>
<linearGradient id="paint2_linear_38_534" x1="200" y1="212.5" x2="5.51772" y2="-9.12053" gradientUnits="userSpaceOnUse">
<stop stop-color="#E53C45" stop-opacity="0"/>
<stop offset="1" stop-color="#FF8288"/>
</linearGradient>
<linearGradient id="paint3_linear_38_534" x1="212" y1="224.5" x2="251.156" y2="282" gradientUnits="userSpaceOnUse">
<stop stop-color="#FF5C00"/>
<stop offset="1" stop-color="#FFDB59"/>
</linearGradient>
<clipPath id="clip0_38_534">
<rect width="282" height="282" rx="16" fill="white"/>
</clipPath>
<clipPath id="clip1_38_534">
<rect width="80" height="80" fill="white" transform="translate(42 45)"/>
</clipPath>
</defs>
</svg>
