<svg width="282" height="282" viewBox="0 0 282 282" fill="none" xmlns="http://www.w3.org/2000/svg">
<g clip-path="url(#clip0_38_397)">
<rect width="282" height="282" rx="16" fill="url(#paint0_linear_38_397)"/>
<rect width="282" height="282" rx="16" fill="#E9482E"/>
<path d="M0 16C0 7.16344 7.16344 0 16 0H267C275.837 0 283 7.16344 283 16V267C283 275.837 275.837 283 267 283H16C7.16344 283 0 275.837 0 267V16Z" fill="url(#paint1_linear_38_397)"/>
<path d="M0 16C0 7.16344 7.16344 0 16 0H267C275.837 0 283 7.16344 283 16V267C283 275.837 275.837 283 267 283H16C7.16344 283 0 275.837 0 267V16Z" fill="#E9482E"/>
<circle cx="128" cy="104" r="165" fill="url(#paint2_linear_38_397)"/>
<path d="M282 282V141C282 141 271.632 188.691 228.088 232.235C184.544 275.779 141 282 141 282H282Z" fill="url(#paint3_linear_38_397)"/>
<path opacity="0.6" d="M114.963 108.155L110.918 116.737C109.117 120.56 105.269 123 101.044 123H100.131C94.1019 123 88.6015 118.113 88.6015 112.085C88.6015 110.466 88.918 103.376 89.4471 102.158C92.2715 95.6555 94.3359 94.764 94.4414 87.9026C94.4429 87.8384 94.4429 87.7727 94.4429 87.7084C94.4429 80.873 88.863 75.3206 82 75.3206C75.1371 75.3206 69.5571 80.873 69.5571 87.7084C69.5571 87.7727 69.5571 87.8384 69.5587 87.9026C69.6642 94.764 71.7286 95.6555 74.553 102.158C75.082 103.376 75.3986 110.466 75.3986 112.085C75.3986 118.113 69.8981 123 63.8686 123H62.9557C58.7306 123 54.8832 120.56 53.0818 116.737L49.0371 108.155C42.8531 92.6919 44.1315 76.6722 44.1315 76.6722C46.0063 62.7093 58.437 54.6613 72.591 54.6888H91.409C105.563 54.6613 117.994 62.7093 119.869 76.6722C119.869 76.6722 121.147 92.6919 114.963 108.155Z" fill="white"/>
<path opacity="0.2" d="M69.5571 87.7084C69.5571 87.7726 69.5571 87.8384 69.5587 87.9026C69.6642 94.764 71.7286 95.6555 74.553 102.158C75.082 103.376 75.3986 110.466 75.3986 112.085C75.3986 118.113 69.8981 123 63.8686 123H62.9557C62.5031 123 62.0535 122.973 61.6115 122.918C67.0845 122.252 71.7821 117.656 71.7821 112.085C71.7821 110.466 71.4655 103.376 70.9365 102.158C68.1121 95.6555 66.0477 94.764 65.9422 87.9026C65.9406 87.8384 65.9406 87.7726 65.9406 87.7084C65.9406 80.873 71.5206 75.3206 78.3835 75.3206H82C75.1371 75.3206 69.5571 80.873 69.5571 87.7084Z" fill="white"/>
<path opacity="0.3" d="M114.963 108.155L110.918 116.737C109.117 120.56 105.27 123 101.044 123H100.131C99.6743 123 99.2201 122.973 98.772 122.918C102.454 122.46 105.693 120.15 107.302 116.737L111.346 108.155C117.53 92.6918 116.252 76.6722 116.252 76.6722C114.38 62.7338 101.989 54.6888 87.8644 54.6888H91.4091C105.563 54.6613 117.994 62.7093 119.869 76.6722C119.869 76.6721 121.147 92.6917 114.963 108.155Z" fill="white"/>
<path d="M114.963 100.468L110.918 109.049C109.117 112.871 105.27 115.311 101.044 115.311H100.131C94.102 115.311 89.2132 110.424 89.2132 104.396V104.395C89.2132 103.642 89.2927 102.891 89.4471 102.157C89.6001 101.423 89.8294 100.705 90.1322 100.014C93.0927 93.2224 94.3451 86.7556 94.4399 80.2413C94.4781 77.6034 93.6906 75.1476 92.3189 73.1168L91.7512 71.013L90.4671 70.9576C89.6398 70.1885 88.7086 69.5309 87.6962 69.0079L86.7352 67.9345L85.4529 68.1178C84.358 67.8013 83.1989 67.6315 82.0001 67.6315C80.8027 67.6315 79.6436 67.8013 78.5472 68.1178L77.2845 67.9559C77.2845 67.9559 76.3039 69.0078 76.3039 69.0061V69.0076C75.29 69.5291 74.3572 70.1851 73.53 70.9512L72.2901 71.228L71.6797 73.1012C70.3401 75.0785 69.5572 77.4594 69.5572 80.0208C69.5572 80.085 69.5572 80.1507 69.5587 80.215C69.6642 87.0764 71.042 93.5127 73.8679 100.013C74.1707 100.704 74.4001 101.423 74.553 102.157C74.7074 102.891 74.7869 103.642 74.7869 104.394V104.396C74.7869 110.424 69.8982 115.311 63.8686 115.311H62.9557C62.4847 115.311 62.0199 115.28 61.5611 115.222H61.5596C57.8987 114.75 54.6829 112.444 53.0818 109.049L49.0372 100.467C45.5246 93.0145 43.8563 84.8548 44.1316 76.6722C44.1316 76.6706 44.1316 76.6706 44.1316 76.6691C44.1897 74.9442 44.3334 73.2178 44.5659 71.4974C44.7616 70.0401 45.0674 68.6195 45.4757 67.2448C48.9699 55.4457 59.9142 46.9756 72.591 47.0001H91.4091C104.011 46.9939 115 55.3738 118.512 67.1852C118.927 68.5767 119.237 70.0172 119.434 71.4974C119.667 73.2178 119.81 74.9442 119.869 76.6691V76.6722C120.144 84.8548 118.475 93.0145 114.963 100.468Z" fill="white"/>
<path d="M74.553 102.157C74.7074 102.891 74.787 103.642 74.787 104.394V104.396C74.787 110.424 69.8982 115.311 63.8687 115.311H62.9557C62.4847 115.311 62.0199 115.281 61.5611 115.223C66.9285 114.531 71.0726 109.948 71.0726 104.396V104.394C71.0726 103.642 70.9931 102.891 70.8402 102.157C70.6857 101.423 70.4563 100.705 70.1536 100.013C67.3292 93.5129 65.9499 87.0766 65.8443 80.2152C65.8428 80.151 65.8428 80.0867 65.8428 80.024C65.8428 73.1856 71.4228 67.6316 78.2857 67.6316H82.0001C75.1371 67.6316 69.5572 73.184 69.5572 80.021C69.5572 80.0852 69.5572 80.151 69.5587 80.2152C69.6642 87.0766 71.042 93.5129 73.8679 100.013C74.1707 100.705 74.4001 101.423 74.553 102.157Z" fill="white"/>
<path d="M114.963 100.468L110.918 109.049C109.117 112.871 105.27 115.311 101.044 115.311H100.131C99.6559 115.311 99.1864 115.281 98.7277 115.223C102.389 114.75 105.603 112.444 107.204 109.049L111.249 100.468C115.501 91.4424 117.053 81.382 115.72 71.4974C113.854 57.4718 101.792 47 87.7115 47H91.4091C105.497 46.9924 117.569 57.4672 119.434 71.4974C120.766 81.382 119.216 91.4424 114.963 100.468Z" fill="white"/>
<path d="M119.869 76.6692C119.015 70.3323 114.709 65.1377 109.565 61.3591C104.714 57.7962 98.2934 55.8358 91.4809 55.8358H71.6139C71.5649 55.8434 71.5145 55.8495 71.4625 55.851C64.8595 56.0453 58.6709 58.1081 54.036 61.6573C49.1289 65.4176 44.9603 70.5082 44.1315 76.6692C44.1896 74.9443 44.3334 73.2179 44.5658 71.4976C44.7616 70.0403 45.0674 68.6197 45.4757 67.2449C47.3933 64.4221 49.898 61.9387 52.6414 59.8376C57.599 56.0407 64.1653 53.8188 71.1551 53.568C71.2331 53.5512 71.3126 53.542 71.3952 53.542H91.4824C98.7781 53.542 105.681 55.6599 110.923 59.5104C113.853 61.6619 116.506 64.2355 118.512 67.1853C118.927 68.5768 119.237 70.0173 119.434 71.4976C119.667 73.2179 119.81 74.9443 119.869 76.6692Z" fill="white"/>
<path d="M95.9263 68.7373C95.8253 68.7755 92.4887 70.0753 92.3189 73.1168C91.7853 72.3263 91.1644 71.6014 90.4671 70.9576C91.6904 67.8718 95.0026 66.6316 95.1387 66.5827C95.7336 66.3686 96.3957 66.6744 96.6113 67.2708C96.8254 67.8672 96.5226 68.5217 95.9263 68.7373Z" fill="white"/>
<path d="M89.9074 63.4875C89.9013 63.4906 89.3982 63.7735 88.8783 64.457C88.3583 65.1405 87.7421 67.0474 87.6962 69.0078C86.9867 68.6424 86.2358 68.3426 85.4529 68.1179C85.878 63.6664 88.733 61.5118 88.863 61.4445C89.4272 61.157 90.1184 61.3803 90.4059 61.9446C90.6949 62.509 90.4701 63.2 89.9074 63.4875Z" fill="white"/>
<path d="M73.5299 70.9515C72.8357 71.5938 72.2133 72.3155 71.6796 73.1015C71.5007 70.0707 68.1748 68.7755 68.0738 68.7373C67.4775 68.5217 67.1747 67.8672 67.3888 67.2708C67.6044 66.6744 68.2665 66.3686 68.8614 66.5827C68.9975 66.6316 72.3051 67.8702 73.5299 70.9515Z" fill="white"/>
<path d="M78.5471 68.1179C77.7657 68.3411 77.0149 68.6408 76.3038 69.0063C76.258 67.0459 75.6417 65.1405 75.1218 64.457C74.6019 63.7735 74.0988 63.4906 74.0927 63.4875C73.5299 63.2 73.3051 62.5088 73.5941 61.9446C73.8816 61.3803 74.5728 61.157 75.1371 61.4445C75.2671 61.5118 78.122 63.6664 78.5471 68.1179Z" fill="white"/>
<path d="M59.224 238C59.0107 238 58.872 237.893 58.808 237.68L57.752 234.256C57.7093 234.171 57.656 234.128 57.592 234.128H49.144C49.08 234.128 49.0267 234.171 48.984 234.256L47.928 237.68C47.864 237.893 47.7253 238 47.512 238H44.312C44.184 238 44.088 237.968 44.024 237.904C43.96 237.819 43.9493 237.701 43.992 237.552L50.936 215.92C51 215.707 51.1387 215.6 51.352 215.6H55.352C55.5653 215.6 55.704 215.707 55.768 215.92L62.744 237.552C62.7653 237.595 62.776 237.648 62.776 237.712C62.776 237.904 62.6587 238 62.424 238H59.224ZM49.976 231.024C49.9547 231.152 49.9973 231.216 50.104 231.216H56.6C56.728 231.216 56.7707 231.152 56.728 231.024L53.432 220.304C53.4107 220.219 53.3787 220.176 53.336 220.176C53.2933 220.176 53.2613 220.219 53.24 220.304L49.976 231.024ZM72.614 221.392C74.342 221.392 75.718 221.904 76.742 222.928C77.7873 223.952 78.31 225.349 78.31 227.12V237.616C78.31 237.723 78.2673 237.819 78.182 237.904C78.118 237.968 78.0327 238 77.926 238H74.982C74.8753 238 74.7793 237.968 74.694 237.904C74.63 237.819 74.598 237.723 74.598 237.616V227.888C74.598 226.907 74.3207 226.117 73.766 225.52C73.2113 224.901 72.4753 224.592 71.558 224.592C70.6407 224.592 69.894 224.891 69.318 225.488C68.7633 226.085 68.486 226.875 68.486 227.856V237.616C68.486 237.723 68.4433 237.819 68.358 237.904C68.294 237.968 68.2087 238 68.102 238H65.158C65.0513 238 64.9553 237.968 64.87 237.904C64.806 237.819 64.774 237.723 64.774 237.616V222.032C64.774 221.925 64.806 221.84 64.87 221.776C64.9553 221.691 65.0513 221.648 65.158 221.648H68.102C68.2087 221.648 68.294 221.691 68.358 221.776C68.4433 221.84 68.486 221.925 68.486 222.032V223.056C68.486 223.12 68.5073 223.163 68.55 223.184C68.5927 223.205 68.6247 223.184 68.646 223.12C69.5207 221.968 70.8433 221.392 72.614 221.392ZM95.3385 224.272C95.3385 224.379 95.2958 224.475 95.2105 224.56C95.1465 224.624 95.0612 224.656 94.9545 224.656H91.6905C91.5838 224.656 91.5305 224.709 91.5305 224.816V232.528C91.5305 233.339 91.7012 233.925 92.0425 234.288C92.4052 234.651 92.9705 234.832 93.7385 234.832H94.6985C94.8052 234.832 94.8905 234.875 94.9545 234.96C95.0398 235.024 95.0825 235.109 95.0825 235.216V237.616C95.0825 237.851 94.9545 237.989 94.6985 238.032L93.0345 238.064C91.3492 238.064 90.0905 237.776 89.2585 237.2C88.4265 236.624 87.9998 235.536 87.9785 233.936V224.816C87.9785 224.709 87.9252 224.656 87.8185 224.656H85.9945C85.8878 224.656 85.7918 224.624 85.7065 224.56C85.6425 224.475 85.6105 224.379 85.6105 224.272V222.032C85.6105 221.925 85.6425 221.84 85.7065 221.776C85.7918 221.691 85.8878 221.648 85.9945 221.648H87.8185C87.9252 221.648 87.9785 221.595 87.9785 221.488V217.744C87.9785 217.637 88.0105 217.552 88.0745 217.488C88.1598 217.403 88.2558 217.36 88.3625 217.36H91.1465C91.2532 217.36 91.3385 217.403 91.4025 217.488C91.4878 217.552 91.5305 217.637 91.5305 217.744V221.488C91.5305 221.595 91.5838 221.648 91.6905 221.648H94.9545C95.0612 221.648 95.1465 221.691 95.2105 221.776C95.2958 221.84 95.3385 221.925 95.3385 222.032V224.272ZM103.915 221.392C105.259 221.392 106.443 221.627 107.467 222.096C108.491 222.565 109.281 223.216 109.835 224.048C110.39 224.859 110.667 225.787 110.667 226.832V237.616C110.667 237.723 110.625 237.819 110.539 237.904C110.475 237.968 110.39 238 110.283 238H107.339C107.233 238 107.137 237.968 107.051 237.904C106.987 237.819 106.955 237.723 106.955 237.616V236.592C106.955 236.528 106.934 236.496 106.891 236.496C106.849 236.475 106.806 236.485 106.763 236.528C105.718 237.68 104.203 238.256 102.219 238.256C100.619 238.256 99.2966 237.851 98.2513 237.04C97.2272 236.229 96.7152 235.024 96.7152 233.424C96.7152 231.76 97.2912 230.469 98.4432 229.552C99.6166 228.613 101.259 228.144 103.371 228.144H106.795C106.902 228.144 106.955 228.091 106.955 227.984V227.216C106.955 226.384 106.71 225.744 106.219 225.296C105.729 224.827 104.993 224.592 104.011 224.592C103.201 224.592 102.539 224.741 102.027 225.04C101.537 225.317 101.227 225.712 101.099 226.224C101.035 226.48 100.886 226.587 100.651 226.544L97.5472 226.16C97.4406 226.139 97.3446 226.107 97.2592 226.064C97.1952 226 97.1739 225.925 97.1952 225.84C97.3659 224.539 98.0592 223.472 99.2752 222.64C100.513 221.808 102.059 221.392 103.915 221.392ZM103.147 235.312C104.193 235.312 105.089 235.035 105.835 234.48C106.582 233.925 106.955 233.221 106.955 232.368V230.864C106.955 230.757 106.902 230.704 106.795 230.704H104.107C102.977 230.704 102.081 230.917 101.419 231.344C100.779 231.771 100.459 232.379 100.459 233.168C100.459 233.851 100.705 234.384 101.195 234.768C101.707 235.131 102.358 235.312 103.147 235.312ZM99.6912 219.664C99.5206 219.664 99.4139 219.621 99.3712 219.536C99.3286 219.429 99.3499 219.312 99.4353 219.184L101.867 215.824C101.974 215.675 102.123 215.6 102.315 215.6H105.675C105.867 215.6 106.017 215.675 106.123 215.824L108.555 219.184C108.619 219.269 108.651 219.355 108.651 219.44C108.651 219.589 108.545 219.664 108.331 219.664H106.091C105.899 219.664 105.75 219.579 105.643 219.408L104.139 217.264C104.097 217.221 104.054 217.2 104.011 217.2C103.969 217.2 103.937 217.221 103.915 217.264L102.411 219.408C102.305 219.579 102.155 219.664 101.963 219.664H99.6912ZM130.938 221.392C132.581 221.392 133.861 221.893 134.778 222.896C135.717 223.877 136.186 225.253 136.186 227.024V237.616C136.186 237.723 136.143 237.819 136.058 237.904C135.994 237.968 135.909 238 135.802 238H132.89C132.783 238 132.687 237.968 132.602 237.904C132.538 237.819 132.506 237.723 132.506 237.616V227.792C132.506 226.811 132.239 226.032 131.706 225.456C131.194 224.88 130.501 224.592 129.626 224.592C128.751 224.592 128.037 224.88 127.482 225.456C126.927 226.032 126.65 226.8 126.65 227.76V237.616C126.65 237.723 126.607 237.819 126.522 237.904C126.458 237.968 126.373 238 126.266 238H123.354C123.247 238 123.151 237.968 123.066 237.904C123.002 237.819 122.97 237.723 122.97 237.616V227.792C122.97 226.811 122.703 226.032 122.17 225.456C121.637 224.88 120.933 224.592 120.058 224.592C119.247 224.592 118.575 224.827 118.042 225.296C117.53 225.765 117.231 226.405 117.146 227.216V237.616C117.146 237.723 117.103 237.819 117.018 237.904C116.954 237.968 116.869 238 116.762 238H113.818C113.711 238 113.615 237.968 113.53 237.904C113.466 237.819 113.434 237.723 113.434 237.616V222.032C113.434 221.925 113.466 221.84 113.53 221.776C113.615 221.691 113.711 221.648 113.818 221.648H116.762C116.869 221.648 116.954 221.691 117.018 221.776C117.103 221.84 117.146 221.925 117.146 222.032V223.088C117.146 223.152 117.167 223.195 117.21 223.216C117.253 223.237 117.295 223.216 117.338 223.152C117.807 222.555 118.383 222.117 119.066 221.84C119.77 221.541 120.549 221.392 121.402 221.392C122.447 221.392 123.365 221.605 124.154 222.032C124.943 222.459 125.551 223.077 125.978 223.888C126.042 223.973 126.117 223.973 126.202 223.888C126.671 223.035 127.322 222.405 128.154 222C128.986 221.595 129.914 221.392 130.938 221.392Z" fill="white"/>
</g>
<defs>
<linearGradient id="paint0_linear_38_397" x1="1.43094e-07" y1="-74.9063" x2="285.635" y2="-69.9858" gradientUnits="userSpaceOnUse">
<stop stop-color="#FFD4CA"/>
<stop offset="1" stop-color="#EB4747"/>
</linearGradient>
<linearGradient id="paint1_linear_38_397" x1="1.43601e-07" y1="-75.1719" x2="286.647" y2="-70.2339" gradientUnits="userSpaceOnUse">
<stop stop-color="#FFD4CA"/>
<stop offset="1" stop-color="#EB4747"/>
</linearGradient>
<linearGradient id="paint2_linear_38_397" x1="200" y1="212.5" x2="5.51772" y2="-9.12053" gradientUnits="userSpaceOnUse">
<stop stop-color="#E53C45" stop-opacity="0"/>
<stop offset="1" stop-color="#FF8288"/>
</linearGradient>
<linearGradient id="paint3_linear_38_397" x1="212" y1="224.5" x2="251.156" y2="282" gradientUnits="userSpaceOnUse">
<stop stop-color="#FF5C00"/>
<stop offset="1" stop-color="#FFDB59"/>
</linearGradient>
<clipPath id="clip0_38_397">
<rect width="282" height="282" rx="16" fill="white"/>
</clipPath>
</defs>
</svg>
