<svg width="49" height="48" viewBox="0 0 49 48" fill="none" xmlns="http://www.w3.org/2000/svg">
<path d="M40.4616 46.1251C48.1041 36.1823 33.3704 31.4295 33.3704 31.4295L17.0398 26.1824C13.6368 24.7946 15.7946 22.4182 18.5512 20.5171L19.1643 20.0846C19.7852 19.6666 19.999 18.8525 19.6634 18.1834C19.2993 17.4987 18.4547 17.2306 17.7623 17.5798L10.8469 21.1349C10.8469 21.1349 -0.141498 25.9685 12.1967 32.304C21.4694 37.071 16.8022 42.8647 13.9125 45.4454C13.7467 45.5924 13.6517 45.8033 13.6516 46.0248C13.6513 46.4527 13.9979 46.7997 14.4258 46.8H39.0833C39.6226 46.8015 40.132 46.5521 40.4616 46.1251Z" fill="url(#paint0_linear_28_127)"/>
<path d="M29.6522 7.72473C29.6522 4.12119 26.731 1.19995 23.1275 1.19995C22.9883 1.19995 22.848 1.19995 22.7066 1.19995C19.2556 1.45425 16.594 4.34276 16.6222 7.80303C16.6647 12.1583 21.2385 16.693 23.0687 18.4906C24.925 16.6669 29.6424 12.0963 29.6522 7.72473ZM25.7341 7.72473C25.7341 9.16614 24.5656 10.3346 23.1242 10.3346C21.6828 10.3346 20.5143 9.16614 20.5143 7.72473C20.5143 6.28331 21.6828 5.11482 23.1242 5.11482C24.5656 5.11482 25.7341 6.28332 25.7341 7.72473Z" fill="#2E425B"/>
<defs>
<linearGradient id="paint0_linear_28_127" x1="3.89591" y1="24.8092" x2="43.466" y2="27.2488" gradientUnits="userSpaceOnUse">
<stop stop-color="#FF1018"/>
<stop offset="1" stop-color="#FF8125"/>
</linearGradient>
</defs>
</svg>
