<svg width="49" height="48" viewBox="0 0 49 48" fill="none" xmlns="http://www.w3.org/2000/svg">
<path d="M24.5 0.75C30.7132 0.75 35.75 5.95472 35.75 12.375C35.75 18.7953 30.7132 24 24.5 24C18.2868 24 13.25 29.2047 13.25 35.625C13.25 42.0453 18.2868 47.25 24.5 47.25C37.3407 47.25 47.75 36.8407 47.75 24C47.75 11.1593 37.3407 0.75 24.5 0.75Z" fill="url(#paint0_linear_37_1082)"/>
<path d="M13.25 35.625C13.25 29.2047 18.2868 24 24.5 24C30.7132 24 35.75 18.7953 35.75 12.375C35.75 5.95472 30.7132 0.75 24.5 0.75C11.6593 0.75 1.25 11.1593 1.25 24C1.25 36.8407 11.6593 47.25 24.5 47.25C18.2868 47.25 13.25 42.0453 13.25 35.625Z" fill="#EDF5FF"/>
<path d="M24.5 15.75C26.5711 15.75 28.25 14.0711 28.25 12C28.25 9.92893 26.5711 8.25 24.5 8.25C22.4289 8.25 20.75 9.92893 20.75 12C20.75 14.0711 22.4289 15.75 24.5 15.75Z" fill="#2E425B"/>
<path d="M24.5 39.75C26.5711 39.75 28.25 38.0711 28.25 36C28.25 33.9289 26.5711 32.25 24.5 32.25C22.4289 32.25 20.75 33.9289 20.75 36C20.75 38.0711 22.4289 39.75 24.5 39.75Z" fill="#EDF5FF"/>
<defs>
<linearGradient id="paint0_linear_37_1082" x1="10.9286" y1="12.437" x2="48.6066" y2="13.8308" gradientUnits="userSpaceOnUse">
<stop stop-color="#FF1018"/>
<stop offset="1" stop-color="#FF8125"/>
</linearGradient>
</defs>
</svg>
