<svg width="22" height="32" viewBox="0 0 22 32" fill="none" xmlns="http://www.w3.org/2000/svg">
<path fill-rule="evenodd" clip-rule="evenodd" d="M13.8674 31.625C15.4586 29.2719 15.6052 26.7304 14.3072 24.0004C13.9463 25.465 13.2861 26.3539 12.3264 26.6672C13.2176 24.1222 12.4729 21.3727 10.0925 18.4187C10.0411 21.4697 9.30794 23.6922 7.89287 25.0863C5.9435 27.0048 5.96644 29.1701 7.96162 31.5819C-0.320752 27.1743 -1.48925 21.2628 4.456 13.8476C4.82475 15.639 5.71831 16.7388 7.13681 17.1471C5.59062 10.5857 7.21744 4.99506 12.0172 0.375C12.0467 10.6279 15.1907 11.5393 19.1659 16.1159C23.4579 21.6082 20.9357 27.9464 13.8674 31.625Z" fill="url(#paint0_linear_88_105)"/>
<defs>
<linearGradient id="paint0_linear_88_105" x1="0.780622" y1="0.987746" x2="28.4553" y2="8.69437" gradientUnits="userSpaceOnUse">
<stop stop-color="#FF1018"/>
<stop offset="1" stop-color="#FF8125"/>
</linearGradient>
</defs>
</svg>
