<svg width="25" height="24" viewBox="0 0 25 24" fill="none" xmlns="http://www.w3.org/2000/svg">
<path d="M3.56024 9.55602C2.90984 9.82902 2.50614 10.315 2.50004 11.003C2.49584 11.484 2.82044 12.13 3.47084 12.394C3.73873 12.503 7.50022 13.009 7.50022 13.009C7.50022 13.009 8.49582 16.156 8.85462 17.262C8.95852 17.582 9.01772 17.739 9.24572 17.948C9.63252 18.302 10.2864 18.191 10.5692 17.907C11.3174 17.157 12.5 16 12.5 16L12.9977 16.405C12.9977 16.405 15.2078 18.168 16.4159 18.998C17.1272 19.487 17.6209 19.997 18.4215 20C18.8293 20.002 19.4834 19.799 19.9158 19.304C20.2015 18.977 20.3848 18.454 20.4557 17.985C20.6169 16.92 22.508 5.40404 22.5 5.00104C22.4872 4.35804 21.9463 3.99603 21.4967 4.00003C21.2143 4.00303 20.9816 4.08504 20.4638 4.24304C16.4584 5.46604 3.82554 9.44502 3.56024 9.55602ZM18.5 7.00002C18.5 7.00002 13.222 11.594 11.1129 13.708C10.4372 14.385 10.3895 15.547 10.3895 15.547L9.29932 12.059L18.5 7.00002Z" fill="url(#paint0_linear_64_614)"/>
<defs>
<linearGradient id="paint0_linear_64_614" x1="2.54978" y1="4.31373" x2="25.2258" y2="16.3222" gradientUnits="userSpaceOnUse">
<stop stop-color="#FF1018"/>
<stop offset="1" stop-color="#FF8125"/>
</linearGradient>
</defs>
</svg>
