<svg width="224" height="224" viewBox="0 0 224 224" fill="none" xmlns="http://www.w3.org/2000/svg">
<g clip-path="url(#clip0_88_297)">
<path d="M81.5 285C159.648 285 223 240.228 223 185C223 129.772 159.648 85 81.5 85C3.3517 85 -60 129.772 -60 185C-60 240.228 3.3517 285 81.5 285Z" fill="url(#paint0_linear_88_297)"/>
<path d="M81.5 226C159.648 226 223 207.644 223 185C223 162.356 159.648 144 81.5 144C3.3517 144 -60 162.356 -60 185C-60 207.644 3.3517 226 81.5 226Z" fill="url(#paint1_linear_88_297)"/>
<path d="M-60 184.616C-60 262.664 3.32425 326 81.5 326C159.613 326 223 262.727 223 184.616C223 174.449 221.926 164.535 219.84 155H-56.9033C-58.9256 164.598 -60 174.449 -60 184.616Z" fill="url(#paint2_linear_88_297)"/>
<path d="M18.2188 254.466C64.9915 301.238 140.877 301.238 187.649 254.466C234.422 207.693 234.422 131.808 187.649 85.0353C181.548 78.9345 174.966 73.6899 168.009 69.1411L2.37817 234.825C6.87349 241.783 12.118 248.365 18.2188 254.466Z" fill="url(#paint3_linear_88_297)"/>
<path d="M111.408 181.256L47.2966 139.568C44.5138 137.748 43.604 134.056 45.263 131.166C50.1329 122.764 60.3009 118.964 69.4521 122.175L132.654 144.331L111.408 181.256Z" fill="url(#paint4_linear_88_297)"/>
<path d="M106.485 177.992L47.35 139.514C44.9953 137.962 43.9785 135.072 44.7813 132.504C47.8852 131.861 52.0594 132.771 56.4477 135.286L110.552 166.593L106.485 177.992Z" fill="url(#paint5_linear_88_297)"/>
<path d="M109.482 179.276L151.17 243.388C152.99 246.171 156.682 247.081 159.572 245.422C167.974 240.552 171.774 230.384 168.563 221.232L146.407 158.031L109.482 179.276Z" fill="url(#paint6_linear_88_297)"/>
<path d="M158.234 246.01C155.612 246.759 152.776 245.796 151.224 243.441L112.746 184.307L124.198 180.293L155.452 234.344C157.967 238.732 158.877 242.853 158.234 246.01Z" fill="url(#paint7_linear_88_297)"/>
<path d="M163.8 207.586L146.407 157.977L109.482 179.276L142.073 229.313L163.8 207.586Z" fill="url(#paint8_linear_88_297)"/>
<path d="M62.1204 226.477L32.0446 206.89C29.2618 205.071 28.4056 201.432 30.0645 198.542L32.2587 194.742C33.7571 192.12 36.9145 190.996 39.6974 191.959L74.9106 204.268L62.1204 226.477Z" fill="url(#paint9_linear_88_297)"/>
<path d="M64.2075 228.618L83.7942 258.694C85.6138 261.476 89.2528 262.333 92.1427 260.674L95.9423 258.48C98.5646 256.981 99.6884 253.824 98.7251 251.041L86.4165 215.828L64.2075 228.618Z" fill="url(#paint10_linear_88_297)"/>
<path d="M64.2075 228.618L83.7942 258.694C85.6138 261.476 89.2528 262.333 92.1427 260.674L95.9423 258.48C98.5646 256.981 99.6884 253.824 98.7251 251.041L86.4165 215.828L64.2075 228.618Z" fill="url(#paint11_linear_88_297)"/>
<path d="M167.118 123.995C166.958 123.834 166.851 123.727 166.69 123.566C156.897 113.827 138.22 116.984 125.59 130.416C96.8521 160.92 67.7931 195.866 50.5076 224.122C47.0291 229.848 47.0826 236.163 50.7216 239.802L50.8822 239.963C54.5213 243.602 60.8361 243.655 66.5623 240.177C94.872 222.891 129.764 193.886 160.268 165.095C173.701 152.465 176.858 133.788 167.118 123.995Z" fill="url(#paint12_linear_88_297)"/>
<path d="M149.137 141.013C149.351 141.227 149.511 141.387 149.725 141.601C153.257 145.133 155.773 149.307 157.325 153.696C158.127 155.997 161.285 156.211 162.409 154.124C167.493 144.705 167.76 134.751 162.141 129.025C162.034 128.918 161.927 128.811 161.766 128.65C156.094 122.978 146.14 123.299 136.668 128.383C134.527 129.507 134.795 132.664 137.096 133.467C141.431 134.965 145.551 137.481 149.137 141.013Z" fill="url(#paint13_linear_88_297)"/>
<path d="M149.137 141.013C149.351 141.227 149.511 141.387 149.725 141.601C153.257 145.133 155.773 149.307 157.325 153.696C158.127 155.997 161.285 156.211 162.409 154.124C167.493 144.705 167.76 134.751 162.141 129.025C162.034 128.918 161.927 128.811 161.766 128.65C156.094 122.978 146.14 123.299 136.668 128.383C134.527 129.507 134.795 132.664 137.096 133.467C141.431 134.965 145.551 137.481 149.137 141.013Z" fill="url(#paint14_linear_88_297)"/>
<path d="M149.137 141.013C149.351 141.227 149.511 141.387 149.725 141.601C153.257 145.133 155.773 149.307 157.325 153.696C158.127 155.997 161.285 156.211 162.409 154.124C167.493 144.705 167.76 134.751 162.141 129.025C162.034 128.918 161.927 128.811 161.766 128.65C156.094 122.978 146.14 123.299 136.668 128.383C134.527 129.507 134.795 132.664 137.096 133.467C141.431 134.965 145.551 137.481 149.137 141.013Z" fill="url(#paint15_linear_88_297)"/>
<path d="M72.2349 192.762C63.94 203.679 56.5013 214.329 50.5076 224.122C47.0291 229.849 47.0826 236.163 50.7216 239.802L50.8822 239.963C54.5213 243.602 60.8361 243.656 66.5623 240.177C76.3556 234.183 86.9517 226.798 97.9224 218.45L72.2349 192.762Z" fill="url(#paint16_linear_88_297)"/>
</g>
<defs>
<linearGradient id="paint0_linear_88_297" x1="210.052" y1="299.332" x2="-221.645" y2="-87.3258" gradientUnits="userSpaceOnUse">
<stop stop-color="#F5FBFF" stop-opacity="0"/>
<stop offset="0.1205" stop-color="#F5FBFF" stop-opacity="0.016"/>
<stop offset="0.2454" stop-color="#F5FBFF" stop-opacity="0.065"/>
<stop offset="0.3724" stop-color="#F5FBFF" stop-opacity="0.147"/>
<stop offset="0.5008" stop-color="#F5FBFF" stop-opacity="0.261"/>
<stop offset="0.6304" stop-color="#F5FBFF" stop-opacity="0.408"/>
<stop offset="0.761" stop-color="#F5FBFF" stop-opacity="0.588"/>
<stop offset="0.8898" stop-color="#F5FBFF" stop-opacity="0.797"/>
<stop offset="1" stop-color="#F5FBFF"/>
</linearGradient>
<linearGradient id="paint1_linear_88_297" x1="101.409" y1="235.781" x2="28.6618" y2="53.4662" gradientUnits="userSpaceOnUse">
<stop stop-color="#F5FBFF" stop-opacity="0"/>
<stop offset="0.1205" stop-color="#F5FBFF" stop-opacity="0.016"/>
<stop offset="0.2454" stop-color="#F5FBFF" stop-opacity="0.065"/>
<stop offset="0.3724" stop-color="#F5FBFF" stop-opacity="0.147"/>
<stop offset="0.5008" stop-color="#F5FBFF" stop-opacity="0.261"/>
<stop offset="0.6304" stop-color="#F5FBFF" stop-opacity="0.408"/>
<stop offset="0.761" stop-color="#F5FBFF" stop-opacity="0.588"/>
<stop offset="0.8898" stop-color="#F5FBFF" stop-opacity="0.797"/>
<stop offset="1" stop-color="#F5FBFF"/>
</linearGradient>
<linearGradient id="paint2_linear_88_297" x1="81.452" y1="206.626" x2="81.452" y2="335.6" gradientUnits="userSpaceOnUse">
<stop stop-color="#0182FC" stop-opacity="0"/>
<stop offset="0.192" stop-color="#017FF5" stop-opacity="0.04"/>
<stop offset="0.391" stop-color="#0179E3" stop-opacity="0.161"/>
<stop offset="0.5932" stop-color="#016EC6" stop-opacity="0.362"/>
<stop offset="0.7966" stop-color="#015F9C" stop-opacity="0.643"/>
<stop offset="1" stop-color="#024C67"/>
</linearGradient>
<linearGradient id="paint3_linear_88_297" x1="119.408" y1="186.233" x2="243.368" y2="310.193" gradientUnits="userSpaceOnUse">
<stop stop-color="#F5FBFF" stop-opacity="0"/>
<stop offset="0.1205" stop-color="#F5FBFF" stop-opacity="0.016"/>
<stop offset="0.2454" stop-color="#F5FBFF" stop-opacity="0.065"/>
<stop offset="0.3724" stop-color="#F5FBFF" stop-opacity="0.147"/>
<stop offset="0.5008" stop-color="#F5FBFF" stop-opacity="0.261"/>
<stop offset="0.6304" stop-color="#F5FBFF" stop-opacity="0.408"/>
<stop offset="0.761" stop-color="#F5FBFF" stop-opacity="0.588"/>
<stop offset="0.8898" stop-color="#F5FBFF" stop-opacity="0.797"/>
<stop offset="1" stop-color="#F5FBFF"/>
</linearGradient>
<linearGradient id="paint4_linear_88_297" x1="94.1401" y1="130.917" x2="75.5076" y2="160.089" gradientUnits="userSpaceOnUse">
<stop stop-color="#EAF6FF"/>
<stop offset="0.2651" stop-color="#E5F3FE"/>
<stop offset="0.5398" stop-color="#D9EDFE"/>
<stop offset="0.8179" stop-color="#C4E3FE"/>
<stop offset="1" stop-color="#B3DAFE"/>
</linearGradient>
<linearGradient id="paint5_linear_88_297" x1="73.1836" y1="158.471" x2="79.9584" y2="147.931" gradientUnits="userSpaceOnUse">
<stop stop-color="#EAF6FF"/>
<stop offset="0.2651" stop-color="#E5F3FE"/>
<stop offset="0.5398" stop-color="#D9EDFE"/>
<stop offset="0.8179" stop-color="#C4E3FE"/>
<stop offset="1" stop-color="#B3DAFE"/>
</linearGradient>
<linearGradient id="paint6_linear_88_297" x1="158.737" y1="196.564" x2="130.506" y2="214.632" gradientUnits="userSpaceOnUse">
<stop stop-color="#EAF6FF"/>
<stop offset="0.2651" stop-color="#E5F3FE"/>
<stop offset="0.5398" stop-color="#D9EDFE"/>
<stop offset="0.8179" stop-color="#C4E3FE"/>
<stop offset="1" stop-color="#B3DAFE"/>
</linearGradient>
<linearGradient id="paint7_linear_88_297" x1="131.542" y1="217.286" x2="140.765" y2="211.452" gradientUnits="userSpaceOnUse">
<stop stop-color="#EAF6FF"/>
<stop offset="0.2651" stop-color="#E5F3FE"/>
<stop offset="0.5398" stop-color="#D9EDFE"/>
<stop offset="0.8179" stop-color="#C4E3FE"/>
<stop offset="1" stop-color="#B3DAFE"/>
</linearGradient>
<linearGradient id="paint8_linear_88_297" x1="148.465" y1="198.028" x2="134.526" y2="184.09" gradientUnits="userSpaceOnUse">
<stop stop-color="#8AC9FE" stop-opacity="0"/>
<stop offset="0.1291" stop-color="#89C8FD" stop-opacity="0.019"/>
<stop offset="0.2629" stop-color="#88C6FB" stop-opacity="0.075"/>
<stop offset="0.3989" stop-color="#87C4F8" stop-opacity="0.168"/>
<stop offset="0.5365" stop-color="#85C0F4" stop-opacity="0.298"/>
<stop offset="0.6753" stop-color="#83BBEF" stop-opacity="0.466"/>
<stop offset="0.8151" stop-color="#7FB5E9" stop-opacity="0.672"/>
<stop offset="0.9532" stop-color="#7CAEE1" stop-opacity="0.911"/>
<stop offset="1" stop-color="#7BACDF"/>
</linearGradient>
<linearGradient id="paint9_linear_88_297" x1="54.1967" y1="198.783" x2="43.0927" y2="216.662" gradientUnits="userSpaceOnUse">
<stop stop-color="#EAF6FF"/>
<stop offset="0.2651" stop-color="#E5F3FE"/>
<stop offset="0.5398" stop-color="#D9EDFE"/>
<stop offset="0.8179" stop-color="#C4E3FE"/>
<stop offset="1" stop-color="#B3DAFE"/>
</linearGradient>
<linearGradient id="paint10_linear_88_297" x1="91.0875" y1="236.948" x2="75.2783" y2="245.605" gradientUnits="userSpaceOnUse">
<stop stop-color="#EAF6FF"/>
<stop offset="0.2651" stop-color="#E5F3FE"/>
<stop offset="0.5398" stop-color="#D9EDFE"/>
<stop offset="0.8179" stop-color="#C4E3FE"/>
<stop offset="1" stop-color="#B3DAFE"/>
</linearGradient>
<linearGradient id="paint11_linear_88_297" x1="90.025" y1="243.989" x2="78.1681" y2="228.368" gradientUnits="userSpaceOnUse">
<stop stop-color="#8AC9FE" stop-opacity="0"/>
<stop offset="0.1291" stop-color="#89C8FD" stop-opacity="0.019"/>
<stop offset="0.2629" stop-color="#88C6FB" stop-opacity="0.075"/>
<stop offset="0.3989" stop-color="#87C4F8" stop-opacity="0.168"/>
<stop offset="0.5365" stop-color="#85C0F4" stop-opacity="0.298"/>
<stop offset="0.6753" stop-color="#83BBEF" stop-opacity="0.466"/>
<stop offset="0.8151" stop-color="#7FB5E9" stop-opacity="0.672"/>
<stop offset="0.9532" stop-color="#7CAEE1" stop-opacity="0.911"/>
<stop offset="1" stop-color="#7BACDF"/>
</linearGradient>
<linearGradient id="paint12_linear_88_297" x1="98.1181" y1="171.211" x2="118.157" y2="191.249" gradientUnits="userSpaceOnUse">
<stop stop-color="#EAF6FF"/>
<stop offset="0.2651" stop-color="#E5F3FE"/>
<stop offset="0.5398" stop-color="#D9EDFE"/>
<stop offset="0.8179" stop-color="#C4E3FE"/>
<stop offset="1" stop-color="#B3DAFE"/>
</linearGradient>
<linearGradient id="paint13_linear_88_297" x1="144.303" y1="126.169" x2="161.015" y2="142.882" gradientUnits="userSpaceOnUse">
<stop stop-color="#26A6FE"/>
<stop offset="0.2729" stop-color="#23A1FD"/>
<stop offset="0.5557" stop-color="#1A95FD"/>
<stop offset="0.8419" stop-color="#0B80FB"/>
<stop offset="1" stop-color="#0172FB"/>
</linearGradient>
<linearGradient id="paint14_linear_88_297" x1="152.146" y1="137.909" x2="146.036" y2="121.459" gradientUnits="userSpaceOnUse">
<stop stop-color="#0182FC" stop-opacity="0"/>
<stop offset="0.192" stop-color="#017FF5" stop-opacity="0.04"/>
<stop offset="0.391" stop-color="#0179E3" stop-opacity="0.161"/>
<stop offset="0.5932" stop-color="#016EC6" stop-opacity="0.362"/>
<stop offset="0.7966" stop-color="#015F9C" stop-opacity="0.643"/>
<stop offset="1" stop-color="#024C67"/>
</linearGradient>
<linearGradient id="paint15_linear_88_297" x1="150.923" y1="135.322" x2="153.117" y2="123.884" gradientUnits="userSpaceOnUse">
<stop stop-color="#0182FC" stop-opacity="0"/>
<stop offset="0.192" stop-color="#017FF5" stop-opacity="0.04"/>
<stop offset="0.391" stop-color="#0179E3" stop-opacity="0.161"/>
<stop offset="0.5932" stop-color="#016EC6" stop-opacity="0.362"/>
<stop offset="0.7966" stop-color="#015F9C" stop-opacity="0.643"/>
<stop offset="1" stop-color="#024C67"/>
</linearGradient>
<linearGradient id="paint16_linear_88_297" x1="70.7869" y1="219.527" x2="49.0882" y2="241.226" gradientUnits="userSpaceOnUse">
<stop stop-color="#8AC9FE" stop-opacity="0"/>
<stop offset="0.1291" stop-color="#89C8FD" stop-opacity="0.019"/>
<stop offset="0.2629" stop-color="#88C6FB" stop-opacity="0.075"/>
<stop offset="0.3989" stop-color="#87C4F8" stop-opacity="0.168"/>
<stop offset="0.5365" stop-color="#85C0F4" stop-opacity="0.298"/>
<stop offset="0.6753" stop-color="#83BBEF" stop-opacity="0.466"/>
<stop offset="0.8151" stop-color="#7FB5E9" stop-opacity="0.672"/>
<stop offset="0.9532" stop-color="#7CAEE1" stop-opacity="0.911"/>
<stop offset="1" stop-color="#7BACDF"/>
</linearGradient>
<clipPath id="clip0_88_297">
<rect width="224" height="224" fill="white"/>
</clipPath>
</defs>
</svg>
