<svg width="1440" height="224" viewBox="0 0 1440 224" fill="none" xmlns="http://www.w3.org/2000/svg">
<g clip-path="url(#clip0_38_250)">
<rect width="1440" height="224" fill="url(#paint0_linear_38_250)"/>
<rect width="1440" height="224" fill="url(#paint1_linear_38_250)"/>
<path d="M0 0H1439V223H0V0Z" fill="url(#paint2_linear_38_250)"/>
<path d="M0 0H1439V223H0V0Z" fill="url(#paint3_linear_38_250)"/>
<path opacity="0.3" d="M1084.81 385.75C1125.46 233.674 984.278 63.9746 769.471 6.71668C554.665 -50.5412 347.577 26.3245 306.927 178.401C266.277 330.478 407.459 500.177 622.266 557.435C837.072 614.693 1044.16 537.827 1084.81 385.75Z" fill="url(#paint4_linear_38_250)"/>
<circle cx="936" cy="40" r="5" fill="#FFAD0A"/>
<circle opacity="0.5" cx="1174.62" cy="168.619" r="8.927" transform="rotate(136.676 1174.62 168.619)" fill="white"/>
<g clip-path="url(#clip1_38_250)">
<path d="M81.5 285C159.648 285 223 240.228 223 185C223 129.772 159.648 85 81.5 85C3.3517 85 -60 129.772 -60 185C-60 240.228 3.3517 285 81.5 285Z" fill="url(#paint5_linear_38_250)"/>
<path d="M81.5 226C159.648 226 223 207.644 223 185C223 162.356 159.648 144 81.5 144C3.3517 144 -60 162.356 -60 185C-60 207.644 3.3517 226 81.5 226Z" fill="url(#paint6_linear_38_250)"/>
<path d="M-60 184.616C-60 262.664 3.32425 326 81.5 326C159.613 326 223 262.727 223 184.616C223 174.449 221.926 164.535 219.84 155H-56.9033C-58.9256 164.598 -60 174.449 -60 184.616Z" fill="url(#paint7_linear_38_250)"/>
<path d="M18.2188 254.466C64.9915 301.238 140.877 301.238 187.649 254.466C234.422 207.693 234.422 131.808 187.649 85.0351C181.548 78.9343 174.966 73.6898 168.009 69.141L2.37817 234.825C6.87349 241.782 12.118 248.365 18.2188 254.466Z" fill="url(#paint8_linear_38_250)"/>
<path d="M111.408 181.256L47.2965 139.568C44.5137 137.748 43.6039 134.056 45.2629 131.166C50.1328 122.764 60.3008 118.964 69.452 122.175L132.654 144.331L111.408 181.256Z" fill="url(#paint9_linear_38_250)"/>
<path d="M106.485 177.992L47.35 139.514C44.9953 137.962 43.9785 135.072 44.7813 132.504C47.8852 131.861 52.0594 132.771 56.4477 135.286L110.552 166.593L106.485 177.992Z" fill="url(#paint10_linear_38_250)"/>
<path d="M109.482 179.276L151.17 243.388C152.99 246.171 156.682 247.081 159.572 245.422C167.974 240.552 171.774 230.384 168.563 221.232L146.407 158.031L109.482 179.276Z" fill="url(#paint11_linear_38_250)"/>
<path d="M158.234 246.01C155.612 246.759 152.776 245.796 151.224 243.441L112.746 184.307L124.198 180.293L155.452 234.344C157.967 238.732 158.877 242.853 158.234 246.01Z" fill="url(#paint12_linear_38_250)"/>
<path d="M163.8 207.586L146.407 157.977L109.482 179.276L142.073 229.313L163.8 207.586Z" fill="url(#paint13_linear_38_250)"/>
<path d="M62.1203 226.477L32.0446 206.89C29.2617 205.071 28.4055 201.432 30.0645 198.542L32.2586 194.742C33.7571 192.12 36.9145 190.996 39.6973 191.959L74.9106 204.268L62.1203 226.477Z" fill="url(#paint14_linear_38_250)"/>
<path d="M64.2075 228.618L83.7942 258.693C85.6137 261.476 89.2528 262.332 92.1426 260.673L95.9422 258.479C98.5645 256.981 99.6883 253.823 98.725 251.041L86.4164 215.827L64.2075 228.618Z" fill="url(#paint15_linear_38_250)"/>
<path d="M64.2075 228.618L83.7942 258.693C85.6137 261.476 89.2528 262.332 92.1426 260.673L95.9422 258.479C98.5645 256.981 99.6883 253.823 98.725 251.041L86.4164 215.827L64.2075 228.618Z" fill="url(#paint16_linear_38_250)"/>
<path d="M167.118 123.995C166.957 123.834 166.85 123.727 166.69 123.566C156.897 113.827 138.22 116.984 125.59 130.416C96.852 160.92 67.793 195.866 50.5075 224.122C47.0289 229.848 47.0825 236.163 50.7215 239.802L50.8821 239.963C54.5211 243.602 60.836 243.655 66.5621 240.177C94.8719 222.891 129.764 193.886 160.268 165.095C173.7 152.465 176.858 133.788 167.118 123.995Z" fill="url(#paint17_linear_38_250)"/>
<path d="M149.137 141.013C149.351 141.227 149.511 141.387 149.725 141.601C153.257 145.133 155.773 149.307 157.325 153.696C158.127 155.997 161.285 156.211 162.409 154.124C167.493 144.705 167.76 134.751 162.141 129.025C162.034 128.918 161.927 128.811 161.766 128.65C156.094 122.978 146.14 123.299 136.668 128.383C134.527 129.507 134.795 132.664 137.096 133.467C141.431 134.965 145.551 137.481 149.137 141.013Z" fill="url(#paint18_linear_38_250)"/>
<path d="M149.137 141.013C149.351 141.227 149.511 141.387 149.725 141.601C153.257 145.133 155.773 149.307 157.325 153.696C158.127 155.997 161.285 156.211 162.409 154.124C167.493 144.705 167.76 134.751 162.141 129.025C162.034 128.918 161.927 128.811 161.766 128.65C156.094 122.978 146.14 123.299 136.668 128.383C134.527 129.507 134.795 132.664 137.096 133.467C141.431 134.965 145.551 137.481 149.137 141.013Z" fill="url(#paint19_linear_38_250)"/>
<path d="M149.137 141.013C149.351 141.227 149.511 141.387 149.725 141.601C153.257 145.133 155.773 149.307 157.325 153.696C158.127 155.997 161.285 156.211 162.409 154.124C167.493 144.705 167.76 134.751 162.141 129.025C162.034 128.918 161.927 128.811 161.766 128.65C156.094 122.978 146.14 123.299 136.668 128.383C134.527 129.507 134.795 132.664 137.096 133.467C141.431 134.965 145.551 137.481 149.137 141.013Z" fill="url(#paint20_linear_38_250)"/>
<path d="M72.2348 192.762C63.9399 203.679 56.5012 214.329 50.5075 224.122C47.0289 229.848 47.0825 236.163 50.7215 239.802L50.8821 239.963C54.5211 243.602 60.836 243.655 66.5621 240.177C76.3555 234.183 86.9516 226.798 97.9223 218.45L72.2348 192.762Z" fill="url(#paint21_linear_38_250)"/>
</g>
</g>
<defs>
<linearGradient id="paint0_linear_38_250" x1="7.30692e-07" y1="-59.5" x2="1441.32" y2="100.115" gradientUnits="userSpaceOnUse">
<stop stop-color="#FFD4CA"/>
<stop offset="1" stop-color="#EB4747"/>
</linearGradient>
<linearGradient id="paint1_linear_38_250" x1="-52.875" y1="-2.38956e-06" x2="1429.09" y2="281.429" gradientUnits="userSpaceOnUse">
<stop stop-color="#F67F29"/>
<stop offset="1" stop-color="#DA0530"/>
</linearGradient>
<linearGradient id="paint2_linear_38_250" x1="7.30185e-07" y1="-59.2344" x2="1440.18" y2="100.859" gradientUnits="userSpaceOnUse">
<stop stop-color="#FFD4CA"/>
<stop offset="1" stop-color="#EB4747"/>
</linearGradient>
<linearGradient id="paint3_linear_38_250" x1="-52.8383" y1="-2.37889e-06" x2="1427.71" y2="282.224" gradientUnits="userSpaceOnUse">
<stop stop-color="#F67F29"/>
<stop offset="1" stop-color="#DA0530"/>
</linearGradient>
<linearGradient id="paint4_linear_38_250" x1="848.124" y1="76.9182" x2="301.367" y2="816.439" gradientUnits="userSpaceOnUse">
<stop stop-color="#F5FBFF" stop-opacity="0"/>
<stop offset="0.1205" stop-color="#F5FBFF" stop-opacity="0.016"/>
<stop offset="0.2454" stop-color="#F5FBFF" stop-opacity="0.065"/>
<stop offset="0.3724" stop-color="#F5FBFF" stop-opacity="0.147"/>
<stop offset="0.5008" stop-color="#F5FBFF" stop-opacity="0.261"/>
<stop offset="0.6304" stop-color="#F5FBFF" stop-opacity="0.408"/>
<stop offset="0.761" stop-color="#F5FBFF" stop-opacity="0.588"/>
<stop offset="0.8898" stop-color="#F5FBFF" stop-opacity="0.797"/>
<stop offset="1" stop-color="#F5FBFF"/>
</linearGradient>
<linearGradient id="paint5_linear_38_250" x1="210.052" y1="299.332" x2="-221.645" y2="-87.3258" gradientUnits="userSpaceOnUse">
<stop stop-color="#F5FBFF" stop-opacity="0"/>
<stop offset="0.1205" stop-color="#F5FBFF" stop-opacity="0.016"/>
<stop offset="0.2454" stop-color="#F5FBFF" stop-opacity="0.065"/>
<stop offset="0.3724" stop-color="#F5FBFF" stop-opacity="0.147"/>
<stop offset="0.5008" stop-color="#F5FBFF" stop-opacity="0.261"/>
<stop offset="0.6304" stop-color="#F5FBFF" stop-opacity="0.408"/>
<stop offset="0.761" stop-color="#F5FBFF" stop-opacity="0.588"/>
<stop offset="0.8898" stop-color="#F5FBFF" stop-opacity="0.797"/>
<stop offset="1" stop-color="#F5FBFF"/>
</linearGradient>
<linearGradient id="paint6_linear_38_250" x1="101.409" y1="235.781" x2="28.6618" y2="53.4662" gradientUnits="userSpaceOnUse">
<stop stop-color="#F5FBFF" stop-opacity="0"/>
<stop offset="0.1205" stop-color="#F5FBFF" stop-opacity="0.016"/>
<stop offset="0.2454" stop-color="#F5FBFF" stop-opacity="0.065"/>
<stop offset="0.3724" stop-color="#F5FBFF" stop-opacity="0.147"/>
<stop offset="0.5008" stop-color="#F5FBFF" stop-opacity="0.261"/>
<stop offset="0.6304" stop-color="#F5FBFF" stop-opacity="0.408"/>
<stop offset="0.761" stop-color="#F5FBFF" stop-opacity="0.588"/>
<stop offset="0.8898" stop-color="#F5FBFF" stop-opacity="0.797"/>
<stop offset="1" stop-color="#F5FBFF"/>
</linearGradient>
<linearGradient id="paint7_linear_38_250" x1="81.452" y1="206.626" x2="81.452" y2="335.6" gradientUnits="userSpaceOnUse">
<stop stop-color="#0182FC" stop-opacity="0"/>
<stop offset="0.192" stop-color="#017FF5" stop-opacity="0.04"/>
<stop offset="0.391" stop-color="#0179E3" stop-opacity="0.161"/>
<stop offset="0.5932" stop-color="#016EC6" stop-opacity="0.362"/>
<stop offset="0.7966" stop-color="#015F9C" stop-opacity="0.643"/>
<stop offset="1" stop-color="#024C67"/>
</linearGradient>
<linearGradient id="paint8_linear_38_250" x1="119.408" y1="186.233" x2="243.368" y2="310.193" gradientUnits="userSpaceOnUse">
<stop stop-color="#F5FBFF" stop-opacity="0"/>
<stop offset="0.1205" stop-color="#F5FBFF" stop-opacity="0.016"/>
<stop offset="0.2454" stop-color="#F5FBFF" stop-opacity="0.065"/>
<stop offset="0.3724" stop-color="#F5FBFF" stop-opacity="0.147"/>
<stop offset="0.5008" stop-color="#F5FBFF" stop-opacity="0.261"/>
<stop offset="0.6304" stop-color="#F5FBFF" stop-opacity="0.408"/>
<stop offset="0.761" stop-color="#F5FBFF" stop-opacity="0.588"/>
<stop offset="0.8898" stop-color="#F5FBFF" stop-opacity="0.797"/>
<stop offset="1" stop-color="#F5FBFF"/>
</linearGradient>
<linearGradient id="paint9_linear_38_250" x1="94.14" y1="130.917" x2="75.5075" y2="160.089" gradientUnits="userSpaceOnUse">
<stop stop-color="#EAF6FF"/>
<stop offset="0.2651" stop-color="#E5F3FE"/>
<stop offset="0.5398" stop-color="#D9EDFE"/>
<stop offset="0.8179" stop-color="#C4E3FE"/>
<stop offset="1" stop-color="#B3DAFE"/>
</linearGradient>
<linearGradient id="paint10_linear_38_250" x1="73.1836" y1="158.471" x2="79.9584" y2="147.931" gradientUnits="userSpaceOnUse">
<stop stop-color="#EAF6FF"/>
<stop offset="0.2651" stop-color="#E5F3FE"/>
<stop offset="0.5398" stop-color="#D9EDFE"/>
<stop offset="0.8179" stop-color="#C4E3FE"/>
<stop offset="1" stop-color="#B3DAFE"/>
</linearGradient>
<linearGradient id="paint11_linear_38_250" x1="158.737" y1="196.564" x2="130.506" y2="214.632" gradientUnits="userSpaceOnUse">
<stop stop-color="#EAF6FF"/>
<stop offset="0.2651" stop-color="#E5F3FE"/>
<stop offset="0.5398" stop-color="#D9EDFE"/>
<stop offset="0.8179" stop-color="#C4E3FE"/>
<stop offset="1" stop-color="#B3DAFE"/>
</linearGradient>
<linearGradient id="paint12_linear_38_250" x1="131.542" y1="217.286" x2="140.765" y2="211.452" gradientUnits="userSpaceOnUse">
<stop stop-color="#EAF6FF"/>
<stop offset="0.2651" stop-color="#E5F3FE"/>
<stop offset="0.5398" stop-color="#D9EDFE"/>
<stop offset="0.8179" stop-color="#C4E3FE"/>
<stop offset="1" stop-color="#B3DAFE"/>
</linearGradient>
<linearGradient id="paint13_linear_38_250" x1="148.465" y1="198.028" x2="134.526" y2="184.089" gradientUnits="userSpaceOnUse">
<stop stop-color="#8AC9FE" stop-opacity="0"/>
<stop offset="0.1291" stop-color="#89C8FD" stop-opacity="0.019"/>
<stop offset="0.2629" stop-color="#88C6FB" stop-opacity="0.075"/>
<stop offset="0.3989" stop-color="#87C4F8" stop-opacity="0.168"/>
<stop offset="0.5365" stop-color="#85C0F4" stop-opacity="0.298"/>
<stop offset="0.6753" stop-color="#83BBEF" stop-opacity="0.466"/>
<stop offset="0.8151" stop-color="#7FB5E9" stop-opacity="0.672"/>
<stop offset="0.9532" stop-color="#7CAEE1" stop-opacity="0.911"/>
<stop offset="1" stop-color="#7BACDF"/>
</linearGradient>
<linearGradient id="paint14_linear_38_250" x1="54.1966" y1="198.782" x2="43.0926" y2="216.662" gradientUnits="userSpaceOnUse">
<stop stop-color="#EAF6FF"/>
<stop offset="0.2651" stop-color="#E5F3FE"/>
<stop offset="0.5398" stop-color="#D9EDFE"/>
<stop offset="0.8179" stop-color="#C4E3FE"/>
<stop offset="1" stop-color="#B3DAFE"/>
</linearGradient>
<linearGradient id="paint15_linear_38_250" x1="91.0874" y1="236.948" x2="75.2782" y2="245.605" gradientUnits="userSpaceOnUse">
<stop stop-color="#EAF6FF"/>
<stop offset="0.2651" stop-color="#E5F3FE"/>
<stop offset="0.5398" stop-color="#D9EDFE"/>
<stop offset="0.8179" stop-color="#C4E3FE"/>
<stop offset="1" stop-color="#B3DAFE"/>
</linearGradient>
<linearGradient id="paint16_linear_38_250" x1="90.025" y1="243.989" x2="78.1681" y2="228.368" gradientUnits="userSpaceOnUse">
<stop stop-color="#8AC9FE" stop-opacity="0"/>
<stop offset="0.1291" stop-color="#89C8FD" stop-opacity="0.019"/>
<stop offset="0.2629" stop-color="#88C6FB" stop-opacity="0.075"/>
<stop offset="0.3989" stop-color="#87C4F8" stop-opacity="0.168"/>
<stop offset="0.5365" stop-color="#85C0F4" stop-opacity="0.298"/>
<stop offset="0.6753" stop-color="#83BBEF" stop-opacity="0.466"/>
<stop offset="0.8151" stop-color="#7FB5E9" stop-opacity="0.672"/>
<stop offset="0.9532" stop-color="#7CAEE1" stop-opacity="0.911"/>
<stop offset="1" stop-color="#7BACDF"/>
</linearGradient>
<linearGradient id="paint17_linear_38_250" x1="98.118" y1="171.211" x2="118.156" y2="191.249" gradientUnits="userSpaceOnUse">
<stop stop-color="#EAF6FF"/>
<stop offset="0.2651" stop-color="#E5F3FE"/>
<stop offset="0.5398" stop-color="#D9EDFE"/>
<stop offset="0.8179" stop-color="#C4E3FE"/>
<stop offset="1" stop-color="#B3DAFE"/>
</linearGradient>
<linearGradient id="paint18_linear_38_250" x1="144.303" y1="126.169" x2="161.015" y2="142.882" gradientUnits="userSpaceOnUse">
<stop stop-color="#26A6FE"/>
<stop offset="0.2729" stop-color="#23A1FD"/>
<stop offset="0.5557" stop-color="#1A95FD"/>
<stop offset="0.8419" stop-color="#0B80FB"/>
<stop offset="1" stop-color="#0172FB"/>
</linearGradient>
<linearGradient id="paint19_linear_38_250" x1="152.146" y1="137.909" x2="146.036" y2="121.459" gradientUnits="userSpaceOnUse">
<stop stop-color="#0182FC" stop-opacity="0"/>
<stop offset="0.192" stop-color="#017FF5" stop-opacity="0.04"/>
<stop offset="0.391" stop-color="#0179E3" stop-opacity="0.161"/>
<stop offset="0.5932" stop-color="#016EC6" stop-opacity="0.362"/>
<stop offset="0.7966" stop-color="#015F9C" stop-opacity="0.643"/>
<stop offset="1" stop-color="#024C67"/>
</linearGradient>
<linearGradient id="paint20_linear_38_250" x1="150.923" y1="135.322" x2="153.117" y2="123.884" gradientUnits="userSpaceOnUse">
<stop stop-color="#0182FC" stop-opacity="0"/>
<stop offset="0.192" stop-color="#017FF5" stop-opacity="0.04"/>
<stop offset="0.391" stop-color="#0179E3" stop-opacity="0.161"/>
<stop offset="0.5932" stop-color="#016EC6" stop-opacity="0.362"/>
<stop offset="0.7966" stop-color="#015F9C" stop-opacity="0.643"/>
<stop offset="1" stop-color="#024C67"/>
</linearGradient>
<linearGradient id="paint21_linear_38_250" x1="70.7867" y1="219.527" x2="49.0881" y2="241.226" gradientUnits="userSpaceOnUse">
<stop stop-color="#8AC9FE" stop-opacity="0"/>
<stop offset="0.1291" stop-color="#89C8FD" stop-opacity="0.019"/>
<stop offset="0.2629" stop-color="#88C6FB" stop-opacity="0.075"/>
<stop offset="0.3989" stop-color="#87C4F8" stop-opacity="0.168"/>
<stop offset="0.5365" stop-color="#85C0F4" stop-opacity="0.298"/>
<stop offset="0.6753" stop-color="#83BBEF" stop-opacity="0.466"/>
<stop offset="0.8151" stop-color="#7FB5E9" stop-opacity="0.672"/>
<stop offset="0.9532" stop-color="#7CAEE1" stop-opacity="0.911"/>
<stop offset="1" stop-color="#7BACDF"/>
</linearGradient>
<clipPath id="clip0_38_250">
<rect width="1440" height="224" fill="white"/>
</clipPath>
<clipPath id="clip1_38_250">
<rect width="224" height="224" fill="white"/>
</clipPath>
</defs>
</svg>
