<svg width="24" height="24" viewBox="0 0 24 24" fill="none" xmlns="http://www.w3.org/2000/svg">
<g clip-path="url(#clip0_28_312)">
<path d="M17.4291 1.84302C14.5776 1.84302 12.557 3.81723 11.6114 4.98479C10.6658 3.81727 8.64521 1.84302 5.79366 1.84302C2.59901 1.84302 0 4.44207 0 7.63673C0 15.2874 11.0752 21.9522 11.2496 22.0568C11.3609 22.1236 11.4862 22.157 11.6114 22.157C11.7366 22.157 11.8618 22.1236 11.9731 22.0568C12.1475 21.9522 23.2227 15.2874 23.2227 7.63673C23.2228 4.44207 20.6238 1.84302 17.4291 1.84302Z" fill="#EE333F"/>
<path d="M17.4291 1.84302C14.5776 1.84302 12.557 3.81723 11.6114 4.98479C10.6658 3.81727 8.64521 1.84302 5.79366 1.84302C2.59901 1.84302 0 4.44207 0 7.63673C0 15.2874 11.0752 21.9522 11.2496 22.0568C11.3609 22.1236 11.4862 22.157 11.6114 22.157C11.7366 22.157 11.8618 22.1236 11.9731 22.0568C12.1475 21.9522 23.2227 15.2874 23.2227 7.63673C23.2228 4.44207 20.6238 1.84302 17.4291 1.84302Z" fill="url(#paint0_linear_28_312)"/>
<path d="M3.84054 16.4517C3.75325 16.384 1.69255 14.7758 0.851453 13.0936C0.712786 12.8162 0.772134 12.4808 0.997575 12.2679C3.52823 9.87783 7.06721 8.66602 11.5163 8.66602H11.5456C11.8569 8.66639 12.1308 8.8713 12.2191 9.16973C12.3074 9.46816 12.189 9.78914 11.9281 9.95875C8.74543 12.0279 6.10259 14.3918 4.85856 16.2823C4.75088 16.446 4.57982 16.5573 4.38654 16.5894C4.06481 16.6429 3.84696 16.4566 3.84054 16.4517Z" fill="#E6E3E1"/>
<path d="M19.0114 16.599H11.4788C11.1752 16.599 10.9059 16.4041 10.8109 16.1157C10.716 15.8273 10.8168 15.5105 11.061 15.3301C13.7767 13.3241 17.8242 10.8669 21.6852 10.5521L21.6853 10.5529C22.1551 10.5108 22.5681 10.9343 22.398 11.5116C22.0986 12.5254 21.2122 15.0356 19.4507 16.4448C19.326 16.5446 19.1711 16.599 19.0114 16.599Z" fill="#C8C8C8"/>
<path d="M6.96231 20.005C6.87976 19.9555 4.92177 18.7734 3.32062 17.1722C3.10662 16.9582 3.05356 16.6312 3.18889 16.3605C5.63058 11.4772 16.7606 4.28442 22.5177 4.28442C22.7041 4.28442 22.883 4.35849 23.0148 4.49036C23.1157 4.5912 24 5.54922 24 8.10421C24 9.80896 23.1815 11.4657 23.1466 11.5353C23.0275 11.7736 22.784 11.924 22.5176 11.924C15.8807 11.924 7.90097 19.8196 7.82113 19.8993C7.65485 20.0656 7.3049 20.2106 6.96231 20.005Z" fill="#FFF5F0"/>
<path d="M22.5176 4.28442C19.6395 4.28442 15.4184 6.08218 11.6114 8.49035V16.6801C14.5535 14.4662 18.7517 11.924 22.5176 11.924C22.784 11.924 23.0274 11.7736 23.1466 11.5353C23.1814 11.4656 24 9.80891 24 8.10421C24 5.54922 23.1157 4.5912 23.0149 4.49036C22.883 4.35849 22.7041 4.28442 22.5176 4.28442Z" fill="#E6E3E1"/>
</g>
<defs>
<linearGradient id="paint0_linear_28_312" x1="-1.56261" y1="6.94862" x2="23.7518" y2="8.39147" gradientUnits="userSpaceOnUse">
<stop stop-color="#FF1018"/>
<stop offset="1" stop-color="#FF8125"/>
</linearGradient>
<clipPath id="clip0_28_312">
<rect width="24" height="24" fill="white"/>
</clipPath>
</defs>
</svg>
