<svg width="210" height="263" viewBox="0 0 210 263" fill="none" xmlns="http://www.w3.org/2000/svg">
<path d="M51.848 100.851C51.848 71.7035 75.5923 48.0062 104.798 48.0062C134.003 48.0062 157.748 71.7035 157.748 100.851C157.748 129.999 134.003 153.696 104.798 153.696C75.5923 153.696 51.848 130.236 51.848 100.851ZM104.798 0.848419C47.3366 0.848419 0.560303 47.5322 0.560303 104.88C0.560303 146.587 55.6471 225.499 85.8024 254.884C92.4508 261.282 101.474 263.889 110.022 262.23C110.734 262.23 111.209 261.993 111.921 261.756C112.159 261.756 112.396 261.756 112.633 261.519C116.67 260.335 120.706 257.965 124.031 254.884C149.2 230.239 191.702 165.782 204.999 126.918C206.898 121.231 208.323 115.544 208.798 110.093C209.035 108.197 209.035 106.539 209.035 104.643C209.035 47.5322 162.496 0.848419 104.798 0.848419Z" fill="url(#paint0_linear_85_477)"/>
<defs>
<linearGradient id="paint0_linear_85_477" x1="0.894397" y1="0.848426" x2="211.972" y2="2.96307" gradientUnits="userSpaceOnUse">
<stop offset="0.465" stop-color="#DA0530"/>
<stop offset="1" stop-color="#F19472"/>
</linearGradient>
</defs>
</svg>
