<svg width="191" height="138" viewBox="0 0 191 138" fill="none" xmlns="http://www.w3.org/2000/svg">
<g filter="url(#filter0_d_85_466)">
<path d="M168.209 78.5967C168.209 93.0642 156.509 104.764 141.916 104.764C141.664 104.764 139.526 104.764 123.8 104.764C112.855 104.764 95.3684 104.764 67.4398 104.764H54.1045C36.6176 105.141 22.6533 91.1772 22.6533 74.3194C22.6533 57.3357 36.7434 43.2456 54.4819 44.1263C69.7042 -3.42788 139.4 3.23976 145.313 52.4294C158.396 54.0648 168.209 65.1356 168.209 78.5967Z" fill="url(#paint0_linear_85_466)"/>
</g>
<path d="M141.916 104.764C156.384 104.764 168.209 93.0642 168.209 78.5967C168.209 64.1292 156.384 52.4293 141.916 52.4293C127.449 52.4293 115.623 64.1292 115.623 78.5967C115.623 93.0642 127.449 104.764 141.916 104.764Z" fill="url(#paint1_linear_85_466)"/>
<path d="M99.0168 105.016C124.807 105.016 145.816 84.132 145.816 58.3421C145.816 32.5521 124.807 11.6686 99.0168 11.6686C73.2269 11.6686 52.2175 32.5521 52.2175 58.3421C52.2175 84.132 73.1011 105.016 99.0168 105.016Z" fill="url(#paint2_linear_85_466)"/>
<defs>
<filter id="filter0_d_85_466" x="0.65332" y="0.782394" width="189.556" height="136.989" filterUnits="userSpaceOnUse" color-interpolation-filters="sRGB">
<feFlood flood-opacity="0" result="BackgroundImageFix"/>
<feColorMatrix in="SourceAlpha" type="matrix" values="0 0 0 0 0 0 0 0 0 0 0 0 0 0 0 0 0 0 127 0" result="hardAlpha"/>
<feOffset dy="11"/>
<feGaussianBlur stdDeviation="11"/>
<feColorMatrix type="matrix" values="0 0 0 0 0.397708 0 0 0 0 0.47749 0 0 0 0 0.575 0 0 0 0.27 0"/>
<feBlend mode="normal" in2="BackgroundImageFix" result="effect1_dropShadow_85_466"/>
<feBlend mode="normal" in="SourceGraphic" in2="effect1_dropShadow_85_466" result="shape"/>
</filter>
<linearGradient id="paint0_linear_85_466" x1="95.4313" y1="50.2091" x2="95.3838" y2="105.774" gradientUnits="userSpaceOnUse">
<stop stop-color="white"/>
<stop offset="0.9964" stop-color="#ECF0F5"/>
</linearGradient>
<linearGradient id="paint1_linear_85_466" x1="112.825" y1="46.7956" x2="136.134" y2="72.2882" gradientUnits="userSpaceOnUse">
<stop stop-color="#BCCBE1"/>
<stop offset="0.9942" stop-color="white" stop-opacity="0"/>
</linearGradient>
<linearGradient id="paint2_linear_85_466" x1="47.8352" y1="36.9248" x2="84.5717" y2="51.301" gradientUnits="userSpaceOnUse">
<stop stop-color="#E2E8F0"/>
<stop offset="0.9942" stop-color="white" stop-opacity="0"/>
</linearGradient>
</defs>
</svg>
