<svg width="48" height="48" viewBox="0 0 48 48" fill="none" xmlns="http://www.w3.org/2000/svg">
<path d="M46.5 24C46.5 25.92 44.1413 27.5025 43.6687 29.2725C43.1812 31.1025 44.415 33.6525 43.4888 35.2537C42.5475 36.8813 39.7163 37.0762 38.3962 38.3962C37.0762 39.7163 36.8813 42.5475 35.2537 43.4888C33.6525 44.415 31.1025 43.1812 29.2725 43.6687C27.5025 44.1413 25.92 46.5 24 46.5C22.08 46.5 20.4975 44.1413 18.7275 43.6687C16.8975 43.1812 14.3475 44.415 12.7463 43.4888C11.1188 42.5475 10.9237 39.7163 9.60375 38.3962C8.28375 37.0762 5.4525 36.8813 4.51125 35.2537C3.585 33.6525 4.81875 31.1025 4.33125 29.2725C3.85875 27.5025 1.5 25.92 1.5 24C1.5 22.08 3.85875 20.4975 4.33125 18.7275C4.81875 16.8975 3.585 14.3475 4.51125 12.7463C5.4525 11.1188 8.28375 10.9237 9.60375 9.60375C10.9237 8.28375 11.1188 5.4525 12.7463 4.51125C14.3475 3.585 16.8975 4.81875 18.7275 4.33125C20.4975 3.85875 22.08 1.5 24 1.5C25.92 1.5 27.5025 3.85875 29.2725 4.33125C31.1025 4.81875 33.6525 3.585 35.2537 4.51125C36.8813 5.4525 37.0762 8.28375 38.3962 9.60375C39.7163 10.9237 42.5475 11.1188 43.4888 12.7463C44.415 14.3475 43.1812 16.8975 43.6687 18.7275C44.1413 20.4975 46.5 22.08 46.5 24Z" fill="url(#paint0_linear_88_188)"/>
<path d="M30.5025 17.2951L21.9375 25.8601L17.4975 21.4238C16.5338 20.4601 14.97 20.4601 14.0063 21.4238C13.0425 22.3876 13.0425 23.9513 14.0063 24.9151L20.235 31.1438C21.1725 32.0813 22.695 32.0813 23.6325 31.1438L33.99 20.7863C34.9538 19.8226 34.9538 18.2588 33.99 17.2951C33.0263 16.3313 31.4663 16.3313 30.5025 17.2951Z" fill="#FFFCEE"/>
<defs>
<linearGradient id="paint0_linear_88_188" x1="-1.52796" y1="12.81" x2="47.5625" y2="15.2576" gradientUnits="userSpaceOnUse">
<stop stop-color="#FF1018"/>
<stop offset="1" stop-color="#FF8125"/>
</linearGradient>
</defs>
</svg>
