<svg width="178" height="59" viewBox="0 0 178 59" fill="none" xmlns="http://www.w3.org/2000/svg">
<path d="M88.7984 58.1126C44.8715 58.1126 0.232178 46.5009 0.232178 24.4623C0.232178 18.538 3.55638 10.0069 19.4651 2.66076C22.5518 1.23892 25.876 2.66075 27.3007 5.50444C28.7253 8.5851 27.3007 11.9027 24.4514 13.3246C15.1911 17.5901 12.1043 21.8556 12.1043 24.2254C12.1043 33.2304 42.0222 46.0269 88.7984 46.0269C135.575 46.0269 165.493 32.9934 165.493 24.2254C165.493 21.1447 160.981 16.1683 148.634 11.4288C145.547 10.2439 144.123 6.92629 145.31 3.84563C146.497 0.764972 149.821 -0.656873 152.908 0.527995C173.091 8.34813 177.365 17.8271 177.365 24.4623C177.365 46.5009 132.725 58.1126 88.7984 58.1126Z" fill="#C90021"/>
</svg>
